<?xml version="1.0" encoding="utf-8" standalone="no"?>
<!DOCTYPE svg PUBLIC "-//W3C//DTD SVG 1.1//EN"
  "http://www.w3.org/Graphics/SVG/1.1/DTD/svg11.dtd">
<svg xmlns:xlink="http://www.w3.org/1999/xlink" width="640.431115pt" height="245.59625pt" viewBox="0 0 640.431115 245.59625" xmlns="http://www.w3.org/2000/svg" version="1.1">
 <metadata>
  <rdf:RDF xmlns:dc="http://purl.org/dc/elements/1.1/" xmlns:cc="http://creativecommons.org/ns#" xmlns:rdf="http://www.w3.org/1999/02/22-rdf-syntax-ns#">
   <cc:Work>
    <dc:type rdf:resource="http://purl.org/dc/dcmitype/StillImage"/>
    <dc:date>2026-05-19T16:16:21.773448</dc:date>
    <dc:format>image/svg+xml</dc:format>
    <dc:creator>
     <cc:Agent>
      <dc:title>Matplotlib v3.10.9, https://matplotlib.org/</dc:title>
     </cc:Agent>
    </dc:creator>
   </cc:Work>
  </rdf:RDF>
 </metadata>
 <defs>
  <style type="text/css">*{stroke-linejoin: round; stroke-linecap: butt}</style>
 </defs>
 <g id="figure_1">
  <g id="patch_1">
   <path d="M 0 245.59625 
L 640.431115 245.59625 
L 640.431115 0 
L 0 0 
z
" style="fill: #ffffff"/>
  </g>
  <g id="axes_1">
   <g id="patch_2">
    <path d="M 46.965625 221.718125 
L 633.231115 221.718125 
L 633.231115 22.318125 
L 46.965625 22.318125 
z
" style="fill: #ffffff"/>
   </g>
   <g id="FillBetweenPolyCollection_1">
    <path d="M -2179.810294 212.654489 
L -2179.810294 212.654417 
L -2178.010339 212.6544 
L -2174.584619 212.654398 
L -2172.842728 212.654398 
L -2042.084746 212.654389 
L -2027.975426 212.654385 
L -2017.291825 212.654378 
L -2012.008088 212.65437 
L -2001.38255 212.654361 
L -1978.447646 212.654325 
L -1976.647692 212.654313 
L -1974.847737 212.654294 
L -1973.105846 212.654286 
L -1969.564 212.654208 
L -1964.338326 212.654187 
L -1960.79648 212.654155 
L -1943.145314 212.65414 
L -1937.803513 212.654132 
L -1936.061622 212.654125 
L -1934.261668 212.654105 
L -1927.177976 212.654092 
L -1925.378021 212.654086 
L -1921.894239 212.654009 
L -1916.552438 212.653997 
L -1914.810547 212.653978 
L -1913.010592 212.65396 
L -1907.668792 212.653947 
L -1904.126946 212.653939 
L -1902.326992 212.653929 
L -1900.701226 212.653915 
L -1888.275734 212.653902 
L -1884.733888 212.653894 
L -1881.133979 212.653883 
L -1872.424522 212.653871 
L -1870.624568 212.653861 
L -1865.282768 212.653854 
L -1861.740922 212.653841 
L -1856.515248 212.653811 
L -1852.973402 212.653782 
L -1849.431556 212.653778 
L -1838.747955 212.653764 
L -1837.064127 212.653758 
L -1829.980435 212.653754 
L -1826.380526 212.653739 
L -1824.638635 212.653724 
L -1815.871115 212.653708 
L -1814.07116 212.6537 
L -1808.787423 212.653694 
L -1806.987468 212.653672 
L -1805.187514 212.653642 
L -1798.103822 212.653615 
L -1794.678102 212.653613 
L -1791.136257 212.653597 
L -1789.336302 212.653588 
L -1778.710764 212.653582 
L -1738.008568 212.65356 
L -1732.666768 212.65355 
L -1725.699202 212.653542 
L -1722.157357 212.653528 
L -1718.615511 212.653508 
L -1715.073665 212.653499 
L -1713.27371 212.653498 
L -1706.306145 212.65349 
L -1702.764299 212.653489 
L -1699.16439 212.653487 
L -1697.422499 212.653486 
L -1692.080698 212.653475 
L -1688.654978 212.653457 
L -1686.855024 212.653453 
L -1685.113133 212.653447 
L -1683.313178 212.653438 
L -1681.571287 212.653381 
L -1679.771332 212.653368 
L -1677.971378 212.653356 
L -1674.429532 212.653329 
L -1670.887686 212.653319 
L -1669.087732 212.653316 
L -1667.403903 212.653314 
L -1665.603949 212.653307 
L -1663.862057 212.653305 
L -1658.520257 212.653304 
L -1656.720303 212.65329 
L -1654.978411 212.653246 
L -1653.178457 212.653222 
L -1651.436565 212.653198 
L -1543.613487 212.653185 
L -1510.111109 212.653184 
L -1494.201834 212.653174 
L -1423.481042 212.653169 
L -1421.739151 212.653167 
L -1411.113613 212.653144 
L -1368.727589 212.653129 
L -1363.443852 212.653115 
L -1350.960297 212.653105 
L -1349.334531 212.653092 
L -1326.283502 212.653078 
L -1322.741656 212.653077 
L -1313.858009 212.653074 
L -1308.516209 212.653073 
L -1306.890444 212.653072 
L -1301.548644 212.653071 
L -1283.897477 212.65307 
L -1280.355631 212.652999 
L -1275.013831 212.652994 
L -1271.471985 212.652966 
L -1269.730094 212.652965 
L -1266.130185 212.652949 
L -1259.162619 212.652948 
L -1255.620773 212.652927 
L -1243.253344 212.652919 
L -1241.45339 212.652911 
L -1236.169652 212.652896 
L -1232.569744 212.652893 
L -1227.286006 212.652889 
L -1225.486052 212.652871 
L -1216.718532 212.652858 
L -1214.97664 212.652857 
L -1209.63484 212.652856 
L -1206.092994 212.652847 
L -1204.29304 212.652836 
L -1197.325474 212.652834 
L -1195.52552 212.65283 
L -1183.100027 212.652827 
L -1177.874353 212.652825 
L -1176.132462 212.652824 
L -1172.590616 212.652796 
L -1170.790661 212.652791 
L -1168.990707 212.652775 
L -1167.248816 212.652774 
L -1163.70697 212.652774 
L -1161.907015 212.652762 
L -1160.107061 212.652761 
L -1158.423232 212.652739 
L -1156.623278 212.652731 
L -1154.881387 212.652712 
L -1153.081432 212.652694 
L -1147.739632 212.652682 
L -1145.99774 212.652681 
L -1142.455894 212.652674 
L -1140.65594 212.652665 
L -1137.23022 212.652648 
L -1135.430266 212.652647 
L -1131.88842 212.652645 
L -1126.54662 212.652636 
L -1123.004774 212.652617 
L -1121.262882 212.652611 
L -1119.462928 212.652594 
L -1117.662973 212.652593 
L -1116.037208 212.652592 
L -1112.495362 212.65259 
L -1108.953516 212.652589 
L -1105.353607 212.652588 
L -1103.611716 212.652547 
L -1101.811762 212.652545 
L -1100.06987 212.652545 
L -1094.844196 212.652535 
L -1093.044241 212.652526 
L -1091.30235 212.652523 
L -1087.760504 212.652511 
L -1085.96055 212.652481 
L -1084.160595 212.652431 
L -1080.618749 212.652419 
L -1078.876858 212.652402 
L -1077.076903 212.652399 
L -1075.276949 212.652397 
L -1073.593121 212.652396 
L -1071.793166 212.65234 
L -1070.051275 212.652328 
L -1068.25132 212.652317 
L -1066.509429 212.652314 
L -1061.167629 212.652291 
L -1059.367674 212.652289 
L -1057.625783 212.652272 
L -1055.825828 212.652263 
L -1054.025874 212.652255 
L -1052.400108 212.652254 
L -1047.058308 212.652253 
L -1045.316417 212.652242 
L -1041.716508 212.65221 
L -1039.974616 212.652189 
L -1038.174662 212.652159 
L -1034.632816 212.652116 
L -1032.832862 212.652079 
L -1029.407142 212.652078 
L -1027.66525 212.652065 
L -1025.865296 212.652039 
L -1024.123405 212.652012 
L -1022.32345 212.651977 
L -1020.523496 212.651967 
L -1018.781604 212.651949 
L -1016.98165 212.65193 
L -1015.239758 212.651926 
L -1013.439804 212.651914 
L -1011.639849 212.651893 
L -1008.21413 212.65186 
L -1004.672284 212.651859 
L -1002.930392 212.651856 
L -1001.130438 212.651821 
L -999.330483 212.65182 
L -997.588592 212.651789 
L -994.046746 212.651763 
L -992.246792 212.651753 
L -990.446837 212.651731 
L -988.763009 212.65172 
L -986.963054 212.651717 
L -985.221163 212.651692 
L -983.421209 212.651681 
L -981.679317 212.651607 
L -979.879363 212.651592 
L -978.079408 212.65159 
L -976.337517 212.651569 
L -970.995716 212.651551 
L -967.569997 212.651536 
L -965.770042 212.651531 
L -964.028151 212.651495 
L -962.228196 212.651493 
L -960.486305 212.651488 
L -958.68635 212.651481 
L -956.886396 212.651477 
L -955.144505 212.65146 
L -953.34455 212.651432 
L -951.602659 212.651416 
L -948.00275 212.651394 
L -944.57703 212.65138 
L -942.835139 212.651368 
L -939.293293 212.651343 
L -935.693384 212.651316 
L -933.951492 212.651296 
L -932.151538 212.651294 
L -930.409647 212.651253 
L -926.809738 212.651249 
L -923.384018 212.651178 
L -921.642126 212.651177 
L -919.842172 212.651149 
L -918.100281 212.651062 
L -916.300326 212.651061 
L -912.75848 212.651051 
L -910.958526 212.651012 
L -909.216634 212.650999 
L -907.41668 212.650964 
L -905.616725 212.650955 
L -903.932897 212.650924 
L -902.132943 212.650888 
L -900.391051 212.65086 
L -898.591097 212.650771 
L -896.849205 212.650753 
L -893.249296 212.650739 
L -889.707451 212.650729 
L -887.965559 212.650725 
L -886.165605 212.650702 
L -884.36565 212.6507 
L -882.739885 212.650698 
L -880.93993 212.650695 
L -879.198039 212.650631 
L -875.656193 212.650597 
L -873.856239 212.650575 
L -872.056284 212.650524 
L -870.314393 212.65037 
L -866.772547 212.650353 
L -864.972592 212.65033 
L -863.172638 212.650313 
L -861.546873 212.650293 
L -859.746918 212.650279 
L -858.005027 212.650173 
L -856.205072 212.650162 
L -854.463181 212.650122 
L -852.663227 212.650109 
L -850.863272 212.650107 
L -849.121381 212.650078 
L -847.321426 212.650068 
L -845.579535 212.650063 
L -843.77958 212.650062 
L -841.979626 212.650039 
L -840.353861 212.65 
L -838.553906 212.649998 
L -836.812015 212.649995 
L -835.01206 212.649992 
L -833.270169 212.649933 
L -831.470214 212.649882 
L -829.67026 212.649853 
L -827.928368 212.649766 
L -824.386523 212.649753 
L -822.586568 212.64973 
L -820.786614 212.649712 
L -819.102785 212.649667 
L -817.302831 212.649525 
L -813.760985 212.649521 
L -812.019094 212.649515 
L -810.219139 212.649497 
L -808.419185 212.649449 
L -806.677293 212.649425 
L -804.877339 212.649423 
L -803.135447 212.649362 
L -801.335493 212.64934 
L -799.535538 212.649339 
L -797.909773 212.649301 
L -796.109819 212.649261 
L -794.367927 212.64926 
L -792.567973 212.649249 
L -790.826081 212.649234 
L -787.226172 212.649231 
L -785.484281 212.6492 
L -781.942435 212.649183 
L -780.142481 212.649165 
L -778.342526 212.649152 
L -776.716761 212.649129 
L -774.916806 212.64911 
L -773.174915 212.64908 
L -771.374961 212.649043 
L -769.633069 212.648988 
L -767.833115 212.648986 
L -766.03316 212.648932 
L -764.291269 212.648906 
L -762.491314 212.648898 
L -760.749423 212.648865 
L -758.949469 212.648842 
L -755.523749 212.648829 
L -753.723794 212.648792 
L -751.981903 212.648753 
L -750.181948 212.64875 
L -748.440057 212.648689 
L -746.640103 212.648669 
L -743.098257 212.648642 
L -741.298302 212.648634 
L -739.556411 212.64861 
L -735.956502 212.648587 
L -732.472719 212.648563 
L -730.730828 212.648537 
L -728.930873 212.648491 
L -727.188982 212.648478 
L -725.389027 212.648461 
L -723.589073 212.648434 
L -720.047227 212.648419 
L -718.305336 212.6484 
L -716.505381 212.648394 
L -714.705427 212.648365 
L -713.079661 212.64835 
L -709.537815 212.648335 
L -707.737861 212.648322 
L -705.99597 212.648311 
L -704.196015 212.648298 
L -702.396061 212.648271 
L -700.654169 212.648242 
L -698.854215 212.648208 
L -697.112323 212.648195 
L -695.312369 212.64816 
L -691.886649 212.648152 
L -690.086695 212.648152 
L -688.344803 212.648141 
L -686.544849 212.648129 
L -684.802957 212.64812 
L -683.003003 212.648119 
L -681.203048 212.648096 
L -679.461157 212.648082 
L -675.919311 212.648039 
L -674.119357 212.648024 
L -672.319402 212.648022 
L -670.693637 212.648003 
L -667.151791 212.647966 
L -665.351837 212.647954 
L -663.609945 212.647952 
L -660.010036 212.647909 
L -658.268145 212.647878 
L -656.46819 212.64773 
L -654.726299 212.647706 
L -652.926345 212.647667 
L -651.12639 212.647636 
L -649.442562 212.647612 
L -647.642607 212.647582 
L -645.900716 212.647541 
L -644.100761 212.647528 
L -640.558916 212.647527 
L -638.758961 212.647496 
L -635.217115 212.647437 
L -631.675269 212.647436 
L -629.875315 212.647412 
L -628.24955 212.647383 
L -626.449595 212.647381 
L -624.707704 212.647319 
L -622.907749 212.647288 
L -621.165858 212.647274 
L -619.365903 212.647272 
L -617.565949 212.647245 
L -615.824057 212.647212 
L -614.024103 212.64721 
L -612.282212 212.647193 
L -610.482257 212.647191 
L -608.682303 212.64717 
L -607.056537 212.647143 
L -605.256583 212.647119 
L -601.714737 212.647117 
L -599.972846 212.647078 
L -598.172891 212.647061 
L -594.631045 212.647049 
L -591.089199 212.647018 
L -584.063571 212.647018 
L -580.521725 212.647012 
L -578.779833 212.647011 
L -573.438033 212.647003 
L -571.638079 212.646984 
L -569.896187 212.646923 
L -568.096233 212.646922 
L -566.296278 212.646868 
L -564.61245 212.646823 
L -561.070604 212.646798 
L -559.27065 212.646797 
L -555.728804 212.646796 
L -553.928849 212.646795 
L -552.186958 212.646774 
L -550.387003 212.646738 
L -548.645112 212.646738 
L -546.845158 212.646703 
L -543.419438 212.646689 
L -541.619483 212.646613 
L -539.877592 212.646591 
L -536.335746 212.64659 
L -534.535792 212.646574 
L -532.735837 212.646558 
L -529.193991 212.646543 
L -527.4521 212.64652 
L -525.652145 212.646515 
L -523.852191 212.646505 
L -522.226426 212.646504 
L -520.426471 212.646503 
L -518.68458 212.646502 
L -516.884625 212.646483 
L -515.142734 212.646481 
L -513.342779 212.646443 
L -511.542825 212.646416 
L -509.800933 212.646376 
L -506.259088 212.646341 
L -504.459133 212.646294 
L -502.659179 212.646251 
L -501.033413 212.64625 
L -499.233459 212.646218 
L -495.691613 212.646188 
L -493.949722 212.646125 
L -492.149767 212.646055 
L -490.349813 212.646049 
L -486.807967 212.646034 
L -483.266121 212.64601 
L -481.466167 212.645995 
L -479.782338 212.645994 
L -477.982384 212.645977 
L -476.240492 212.645937 
L -474.440538 212.645883 
L -472.698646 212.645831 
L -470.898692 212.645671 
L -469.098737 212.645655 
L -465.556892 212.645641 
L -463.815 212.645628 
L -462.015046 212.645581 
L -458.589326 212.645561 
L -456.789371 212.645529 
L -455.04748 212.645425 
L -451.505634 212.645408 
L -449.70568 212.645395 
L -447.905725 212.645363 
L -446.163834 212.645338 
L -444.363879 212.645336 
L -442.621988 212.645313 
L -440.822034 212.645293 
L -439.022079 212.645276 
L -437.396314 212.645228 
L -433.854468 212.645155 
L -432.054513 212.645141 
L -430.312622 212.645136 
L -428.512668 212.645124 
L -426.712713 212.645109 
L -423.170867 212.645082 
L -421.428976 212.64507 
L -419.629021 212.645045 
L -417.829067 212.645002 
L -416.203302 212.644991 
L -414.403347 212.644962 
L -412.661456 212.644947 
L -410.861501 212.644904 
L -409.11961 212.644887 
L -407.319655 212.644869 
L -403.77781 212.644805 
L -401.977855 212.644735 
L -400.235964 212.644732 
L -398.436009 212.644716 
L -396.636055 212.644656 
L -394.952226 212.644646 
L -393.152272 212.644627 
L -391.41038 212.644568 
L -387.868535 212.644543 
L -384.268626 212.64454 
L -382.526734 212.64441 
L -380.72678 212.644397 
L -378.984888 212.644396 
L -377.184934 212.64438 
L -375.384979 212.64437 
L -373.759214 212.64435 
L -371.95926 212.644348 
L -370.217368 212.644328 
L -366.675522 212.64427 
L -364.875568 212.644231 
L -363.075613 212.644168 
L -361.333722 212.644145 
L -359.533768 212.644129 
L -357.791876 212.644008 
L -355.991922 212.643984 
L -350.766248 212.643969 
L -349.024356 212.64394 
L -347.224402 212.643917 
L -345.48251 212.643907 
L -343.682556 212.643905 
L -341.882601 212.643904 
L -340.14071 212.643902 
L -338.340755 212.6439 
L -331.37319 212.643899 
L -329.573235 212.643875 
L -327.831344 212.64385 
L -326.031389 212.643809 
L -324.289498 212.643775 
L -322.489544 212.643758 
L -320.689589 212.643731 
L -318.947698 212.643721 
L -315.405852 212.643706 
L -313.605897 212.643653 
L -311.805943 212.64348 
L -310.122115 212.643468 
L -308.32216 212.643429 
L -306.580269 212.643397 
L -304.780314 212.643383 
L -303.038423 212.643382 
L -299.438514 212.643371 
L -297.696622 212.643368 
L -295.896668 212.64335 
L -294.154777 212.643347 
L -292.354822 212.643325 
L -290.554868 212.643285 
L -288.929102 212.643265 
L -287.129148 212.643247 
L -285.387257 212.643217 
L -283.587302 212.643207 
L -278.245502 212.642978 
L -276.50361 212.64293 
L -274.703656 212.642918 
L -272.961764 212.642916 
L -271.16181 212.642874 
L -269.361856 212.642858 
L -267.73609 212.642855 
L -265.936136 212.642844 
L -264.194244 212.642456 
L -262.39429 212.642407 
L -260.652398 212.642393 
L -258.852444 212.642283 
L -255.310598 212.642274 
L -253.510644 212.642236 
L -251.768752 212.642192 
L -249.968798 212.642126 
L -248.168843 212.642069 
L -246.543078 212.642049 
L -244.743124 212.642025 
L -243.001232 212.641971 
L -241.201278 212.641895 
L -239.459386 212.641851 
L -237.659432 212.641763 
L -235.859477 212.64115 
L -234.117586 212.641036 
L -232.317631 212.64093 
L -230.57574 212.640794 
L -228.775786 212.640639 
L -226.975831 212.640563 
L -225.292003 212.640497 
L -223.492048 212.64038 
L -221.750157 212.64022 
L -219.950202 212.640075 
L -218.208311 212.639813 
L -216.408357 212.639621 
L -214.608402 212.639051 
L -212.866511 212.638822 
L -211.066556 212.638559 
L -209.324665 212.638347 
L -207.52471 212.638128 
L -205.724756 212.638032 
L -204.098991 212.637887 
L -202.299036 212.637787 
L -200.557145 212.637584 
L -198.75719 212.637329 
L -197.015299 212.637086 
L -195.215344 212.636899 
L -193.41539 212.636531 
L -191.673499 212.636265 
L -189.873544 212.636039 
L -188.131653 212.635825 
L -186.331698 212.635502 
L -184.531744 212.635401 
L -182.905978 212.635263 
L -181.106024 212.635032 
L -179.364133 212.634773 
L -177.564178 212.634571 
L -175.822287 212.634399 
L -174.022332 212.634213 
L -172.222378 212.634064 
L -170.480486 212.63387 
L -168.680532 212.633665 
L -166.93864 212.633146 
L -165.138686 212.63303 
L -163.338732 212.632967 
L -161.712966 212.632877 
L -159.913012 212.632773 
L -158.17112 212.632605 
L -156.371166 212.632441 
L -154.629274 212.632089 
L -152.82932 212.631914 
L -151.029366 212.631805 
L -149.287474 212.631445 
L -147.48752 212.63106 
L -145.745628 212.630978 
L -143.945674 212.630753 
L -142.145719 212.630674 
L -140.461891 212.630553 
L -138.661937 212.630352 
L -136.920045 212.630048 
L -135.120091 212.629282 
L -133.378199 212.628701 
L -131.578245 212.628233 
L -129.77829 212.627646 
L -128.036399 212.627028 
L -126.236444 212.626168 
L -124.494553 212.625439 
L -122.694599 212.624961 
L -120.894644 212.624735 
L -119.268879 212.624462 
L -117.468924 212.623951 
L -115.727033 212.623277 
L -113.927078 212.622333 
L -112.185187 212.621146 
L -110.385233 212.62019 
L -108.585278 212.619016 
L -106.843387 212.618265 
L -105.043432 212.616191 
L -103.301541 212.615445 
L -101.501586 212.614337 
L -99.701632 212.614021 
L -98.075867 212.613653 
L -96.275912 212.61304 
L -94.534021 212.612014 
L -92.734066 212.611293 
L -90.992175 212.610539 
L -89.19222 212.609961 
L -87.392266 212.608536 
L -85.650375 212.607233 
L -83.85042 212.606541 
L -82.108529 212.60594 
L -80.308574 212.604811 
L -78.50862 212.604615 
L -76.882854 212.60239 
L -75.0829 212.601597 
L -73.341009 212.600381 
L -71.541054 212.598936 
L -69.799163 212.597723 
L -67.999208 212.596473 
L -66.199254 212.595232 
L -64.457362 212.593791 
L -62.657408 212.592409 
L -60.915516 212.591065 
L -59.115562 212.586071 
L -57.315608 212.584676 
L -55.631779 212.583431 
L -53.831825 212.577381 
L -52.089933 212.571948 
L -50.289979 212.566178 
L -48.548087 212.560243 
L -46.748133 212.554203 
L -44.948179 212.549004 
L -43.206287 212.543623 
L -41.406333 212.539343 
L -39.664441 212.531929 
L -37.864487 212.518911 
L -36.064532 212.51463 
L -34.438767 212.508247 
L -32.638813 212.502289 
L -30.896921 212.492488 
L -29.096967 212.482846 
L -27.355075 212.471845 
L -25.555121 212.460714 
L -23.755166 212.450829 
L -22.013275 212.436817 
L -20.21332 212.416957 
L -18.471429 212.374924 
L -16.671475 212.357138 
L -14.87152 212.353788 
L -13.245755 212.348512 
L -11.4458 212.339266 
L -9.703909 212.332305 
L -7.903954 212.322455 
L -6.162063 212.31294 
L -4.362109 212.303808 
L -2.562154 212.291818 
L -0.820263 212.279413 
L 0.979692 212.26183 
L 2.721583 212.206236 
L 4.521538 212.185941 
L 6.321492 212.183304 
L 7.947257 212.175138 
L 9.747212 212.160369 
L 11.489103 212.142672 
L 13.289058 212.124703 
L 15.030949 212.098159 
L 16.830904 212.075192 
L 18.630858 212.049835 
L 20.372749 212.024372 
L 22.172704 212.002494 
L 23.914595 211.984517 
L 25.71455 211.90644 
L 27.514504 211.883602 
L 29.198333 211.834123 
L 30.998287 211.767422 
L 32.740178 211.700707 
L 34.540133 211.613497 
L 36.282024 211.521048 
L 38.081979 211.445244 
L 39.881933 211.359544 
L 41.623825 211.265515 
L 43.423779 211.174525 
L 45.165671 210.977577 
L 46.965625 210.936 
L 48.765579 210.912071 
L 50.391345 210.84211 
L 52.191299 210.720144 
L 53.933191 210.612027 
L 55.733145 210.469306 
L 57.475037 210.353714 
L 59.274991 210.230759 
L 61.074945 210.107258 
L 62.816837 209.995212 
L 64.616791 209.867964 
L 66.358683 209.554251 
L 68.158637 209.51868 
L 69.958592 209.479498 
L 71.584357 209.403567 
L 73.384311 209.307776 
L 75.126203 209.193848 
L 76.926157 209.079165 
L 78.668049 208.96864 
L 80.468003 208.868519 
L 82.267958 208.777565 
L 84.009849 208.678214 
L 85.809803 208.562478 
L 87.551695 208.25544 
L 89.351649 208.220544 
L 91.151604 208.197172 
L 92.777369 208.135426 
L 94.577324 208.04272 
L 96.319215 207.933159 
L 98.119169 207.797867 
L 99.861061 207.620345 
L 101.661015 207.436584 
L 103.46097 207.28447 
L 105.202861 207.107832 
L 107.002816 206.894235 
L 108.744707 206.329612 
L 110.544662 206.273428 
L 112.344616 206.201146 
L 114.028444 206.095141 
L 115.828399 205.925642 
L 117.57029 205.768593 
L 119.370245 205.560808 
L 121.112136 205.345555 
L 122.912091 205.134369 
L 124.712045 204.863491 
L 126.453936 204.556072 
L 128.253891 204.186427 
L 129.995782 203.28589 
L 131.795737 203.256999 
L 133.595691 203.224791 
L 135.221457 203.100605 
L 137.021411 202.886684 
L 138.763302 202.611962 
L 140.563257 202.263836 
L 142.305148 201.787096 
L 144.105103 201.29903 
L 145.905057 200.713675 
L 147.646949 200.113003 
L 149.446903 199.25028 
L 151.188795 196.443191 
L 152.988749 196.414904 
L 154.788703 196.32854 
L 156.414469 195.799859 
L 158.214423 194.989112 
L 159.956315 193.975637 
L 161.756269 189.101399 
L 163.49816 189.001129 
L 165.298115 188.788845 
L 167.098069 187.534125 
L 168.839961 187.382211 
L 170.639915 186.951027 
L 172.381807 184.777508 
L 174.181761 184.742443 
L 175.981716 184.691766 
L 177.607481 184.525301 
L 179.407435 184.251427 
L 181.149327 183.673189 
L 182.949281 182.501304 
L 184.691173 181.576533 
L 186.491127 180.637575 
L 188.291082 179.942632 
L 190.032973 179.237544 
L 191.832927 178.036854 
L 193.574819 172.479941 
L 195.374773 172.433041 
L 197.174728 172.340303 
L 198.858556 169.790745 
L 200.658511 169.643995 
L 202.400402 169.410933 
L 204.200357 165.95004 
L 205.942248 165.735 
L 207.742202 165.333732 
L 209.542157 163.616393 
L 211.284048 162.876512 
L 213.084003 162.294117 
L 214.825894 161.919118 
L 216.625849 161.523438 
L 218.425803 161.235928 
L 220.051568 160.784264 
L 221.851523 160.194004 
L 223.593414 159.691052 
L 225.393369 159.207924 
L 227.13526 158.736945 
L 228.935215 158.306267 
L 230.735169 157.923651 
L 232.47706 157.577738 
L 234.277015 157.294679 
L 236.018906 157.096294 
L 237.818861 156.802563 
L 239.618815 156.653053 
L 241.244581 156.415982 
L 243.044535 156.125061 
L 244.786426 155.862362 
L 246.586381 155.593766 
L 248.328272 155.019482 
L 250.128227 154.83909 
L 251.928181 154.70798 
L 253.670073 154.59253 
L 255.470027 154.464176 
L 257.211918 154.378074 
L 259.011873 154.183857 
L 260.811827 154.073308 
L 262.437593 153.926065 
L 264.237547 153.783638 
L 265.979439 153.638755 
L 267.779393 153.507115 
L 269.521284 153.222313 
L 271.321239 152.735844 
L 273.121193 152.629338 
L 274.863085 152.534442 
L 276.663039 152.425358 
L 278.404931 152.197174 
L 280.204885 152.102077 
L 282.00484 152.030801 
L 283.688668 151.919183 
L 285.488622 151.784124 
L 287.230514 151.633577 
L 289.030468 151.478213 
L 290.77236 151.357353 
L 292.572314 151.189076 
L 294.372269 151.022621 
L 296.11416 150.852701 
L 297.914114 150.618678 
L 299.656006 149.8865 
L 301.45596 149.815636 
L 303.255915 149.590027 
L 304.88168 149.414039 
L 306.681635 149.194125 
L 308.423526 148.896651 
L 310.22348 148.568746 
L 311.965372 148.359553 
L 313.765326 148.130973 
L 315.565281 147.967713 
L 317.307172 147.724924 
L 319.107127 147.553122 
L 320.849018 147.315136 
L 322.648973 146.906325 
L 324.448927 146.604735 
L 326.074692 146.350864 
L 327.874647 146.006544 
L 329.616538 145.622103 
L 331.416493 145.071207 
L 333.158384 144.594222 
L 334.958339 144.097864 
L 336.758293 143.805068 
L 338.500184 143.509526 
L 340.300139 143.193181 
L 342.04203 142.678918 
L 343.841985 141.391703 
L 345.641939 140.874635 
L 347.267705 140.370961 
L 349.067659 139.963512 
L 350.80955 139.551952 
L 352.609505 139.157299 
L 354.351396 138.729436 
L 356.151351 138.208713 
L 357.951305 137.762329 
L 359.693197 137.166777 
L 361.493151 136.84572 
L 363.235042 136.464018 
L 365.034997 135.664376 
L 366.834951 135.200856 
L 368.51878 134.640934 
L 370.318734 134.051053 
L 372.060626 133.316598 
L 373.86058 132.609044 
L 375.602471 131.957665 
L 377.402426 131.340624 
L 379.20238 130.745281 
L 380.944272 130.10038 
L 382.744226 129.3122 
L 384.486118 128.501945 
L 386.286072 127.888765 
L 388.086027 127.289117 
L 389.711792 126.236455 
L 391.511746 125.30181 
L 393.253638 124.686408 
L 395.053592 123.984939 
L 396.795484 123.176456 
L 398.595438 122.544001 
L 400.395393 121.81863 
L 402.137284 121.164163 
L 403.937238 120.601356 
L 405.67913 119.674489 
L 407.479084 118.888406 
L 409.279039 117.807167 
L 410.904804 116.499511 
L 412.704759 115.745665 
L 414.44665 114.733219 
L 416.246604 113.859145 
L 417.988496 113.087559 
L 419.78845 112.011558 
L 421.588405 110.701282 
L 423.330296 109.733641 
L 425.130251 108.715802 
L 426.872142 107.990443 
L 428.672097 106.426493 
L 430.472051 104.996678 
L 432.097816 103.036451 
L 433.897771 101.208203 
L 435.639662 99.134697 
L 437.439617 96.996361 
L 439.181508 94.665542 
L 440.981463 92.526287 
L 442.781417 90.646668 
L 444.523308 88.313041 
L 446.323263 86.10602 
L 448.065154 84.308665 
L 449.865109 81.829259 
L 451.665063 79.919823 
L 453.348892 77.76122 
L 455.148846 75.724641 
L 456.890737 73.860869 
L 458.690692 71.650463 
L 460.432583 69.127161 
L 462.232538 67.539743 
L 464.032492 65.629879 
L 465.774384 63.072835 
L 467.574338 61.37673 
L 469.316229 58.575063 
L 471.116184 57.114071 
L 472.916138 54.569359 
L 474.541904 53.211124 
L 476.341858 51.579329 
L 478.08375 49.636855 
L 479.883704 47.949903 
L 481.625595 45.551786 
L 483.42555 42.434018 
L 485.225504 40.899987 
L 486.967396 38.921265 
L 488.76735 36.034195 
L 490.509242 34.106683 
L 492.309196 33.223418 
L 494.109151 32.612455 
L 495.734916 31.949318 
L 497.53487 31.468809 
L 499.276762 31.381761 
L 499.276762 212.654489 
L 499.276762 212.654489 
L 497.53487 212.654489 
L 495.734916 212.654489 
L 494.109151 212.654489 
L 492.309196 212.654489 
L 490.509242 212.654489 
L 488.76735 212.654489 
L 486.967396 212.654489 
L 485.225504 212.654489 
L 483.42555 212.654489 
L 481.625595 212.654489 
L 479.883704 212.654489 
L 478.08375 212.654489 
L 476.341858 212.654489 
L 474.541904 212.654489 
L 472.916138 212.654489 
L 471.116184 212.654489 
L 469.316229 212.654489 
L 467.574338 212.654489 
L 465.774384 212.654489 
L 464.032492 212.654489 
L 462.232538 212.654489 
L 460.432583 212.654489 
L 458.690692 212.654489 
L 456.890737 212.654489 
L 455.148846 212.654489 
L 453.348892 212.654489 
L 451.665063 212.654489 
L 449.865109 212.654489 
L 448.065154 212.654489 
L 446.323263 212.654489 
L 444.523308 212.654489 
L 442.781417 212.654489 
L 440.981463 212.654489 
L 439.181508 212.654489 
L 437.439617 212.654489 
L 435.639662 212.654489 
L 433.897771 212.654489 
L 432.097816 212.654489 
L 430.472051 212.654489 
L 428.672097 212.654489 
L 426.872142 212.654489 
L 425.130251 212.654489 
L 423.330296 212.654489 
L 421.588405 212.654489 
L 419.78845 212.654489 
L 417.988496 212.654489 
L 416.246604 212.654489 
L 414.44665 212.654489 
L 412.704759 212.654489 
L 410.904804 212.654489 
L 409.279039 212.654489 
L 407.479084 212.654489 
L 405.67913 212.654489 
L 403.937238 212.654489 
L 402.137284 212.654489 
L 400.395393 212.654489 
L 398.595438 212.654489 
L 396.795484 212.654489 
L 395.053592 212.654489 
L 393.253638 212.654489 
L 391.511746 212.654489 
L 389.711792 212.654489 
L 388.086027 212.654489 
L 386.286072 212.654489 
L 384.486118 212.654489 
L 382.744226 212.654489 
L 380.944272 212.654489 
L 379.20238 212.654489 
L 377.402426 212.654489 
L 375.602471 212.654489 
L 373.86058 212.654489 
L 372.060626 212.654489 
L 370.318734 212.654489 
L 368.51878 212.654489 
L 366.834951 212.654489 
L 365.034997 212.654489 
L 363.235042 212.654489 
L 361.493151 212.654489 
L 359.693197 212.654489 
L 357.951305 212.654489 
L 356.151351 212.654489 
L 354.351396 212.654489 
L 352.609505 212.654489 
L 350.80955 212.654489 
L 349.067659 212.654489 
L 347.267705 212.654489 
L 345.641939 212.654489 
L 343.841985 212.654489 
L 342.04203 212.654489 
L 340.300139 212.654489 
L 338.500184 212.654489 
L 336.758293 212.654489 
L 334.958339 212.654489 
L 333.158384 212.654489 
L 331.416493 212.654489 
L 329.616538 212.654489 
L 327.874647 212.654489 
L 326.074692 212.654489 
L 324.448927 212.654489 
L 322.648973 212.654489 
L 320.849018 212.654489 
L 319.107127 212.654489 
L 317.307172 212.654489 
L 315.565281 212.654489 
L 313.765326 212.654489 
L 311.965372 212.654489 
L 310.22348 212.654489 
L 308.423526 212.654489 
L 306.681635 212.654489 
L 304.88168 212.654489 
L 303.255915 212.654489 
L 301.45596 212.654489 
L 299.656006 212.654489 
L 297.914114 212.654489 
L 296.11416 212.654489 
L 294.372269 212.654489 
L 292.572314 212.654489 
L 290.77236 212.654489 
L 289.030468 212.654489 
L 287.230514 212.654489 
L 285.488622 212.654489 
L 283.688668 212.654489 
L 282.00484 212.654489 
L 280.204885 212.654489 
L 278.404931 212.654489 
L 276.663039 212.654489 
L 274.863085 212.654489 
L 273.121193 212.654489 
L 271.321239 212.654489 
L 269.521284 212.654489 
L 267.779393 212.654489 
L 265.979439 212.654489 
L 264.237547 212.654489 
L 262.437593 212.654489 
L 260.811827 212.654489 
L 259.011873 212.654489 
L 257.211918 212.654489 
L 255.470027 212.654489 
L 253.670073 212.654489 
L 251.928181 212.654489 
L 250.128227 212.654489 
L 248.328272 212.654489 
L 246.586381 212.654489 
L 244.786426 212.654489 
L 243.044535 212.654489 
L 241.244581 212.654489 
L 239.618815 212.654489 
L 237.818861 212.654489 
L 236.018906 212.654489 
L 234.277015 212.654489 
L 232.47706 212.654489 
L 230.735169 212.654489 
L 228.935215 212.654489 
L 227.13526 212.654489 
L 225.393369 212.654489 
L 223.593414 212.654489 
L 221.851523 212.654489 
L 220.051568 212.654489 
L 218.425803 212.654489 
L 216.625849 212.654489 
L 214.825894 212.654489 
L 213.084003 212.654489 
L 211.284048 212.654489 
L 209.542157 212.654489 
L 207.742202 212.654489 
L 205.942248 212.654489 
L 204.200357 212.654489 
L 202.400402 212.654489 
L 200.658511 212.654489 
L 198.858556 212.654489 
L 197.174728 212.654489 
L 195.374773 212.654489 
L 193.574819 212.654489 
L 191.832927 212.654489 
L 190.032973 212.654489 
L 188.291082 212.654489 
L 186.491127 212.654489 
L 184.691173 212.654489 
L 182.949281 212.654489 
L 181.149327 212.654489 
L 179.407435 212.654489 
L 177.607481 212.654489 
L 175.981716 212.654489 
L 174.181761 212.654489 
L 172.381807 212.654489 
L 170.639915 212.654489 
L 168.839961 212.654489 
L 167.098069 212.654489 
L 165.298115 212.654489 
L 163.49816 212.654489 
L 161.756269 212.654489 
L 159.956315 212.654489 
L 158.214423 212.654489 
L 156.414469 212.654489 
L 154.788703 212.654489 
L 152.988749 212.654489 
L 151.188795 212.654489 
L 149.446903 212.654489 
L 147.646949 212.654489 
L 145.905057 212.654489 
L 144.105103 212.654489 
L 142.305148 212.654489 
L 140.563257 212.654489 
L 138.763302 212.654489 
L 137.021411 212.654489 
L 135.221457 212.654489 
L 133.595691 212.654489 
L 131.795737 212.654489 
L 129.995782 212.654489 
L 128.253891 212.654489 
L 126.453936 212.654489 
L 124.712045 212.654489 
L 122.912091 212.654489 
L 121.112136 212.654489 
L 119.370245 212.654489 
L 117.57029 212.654489 
L 115.828399 212.654489 
L 114.028444 212.654489 
L 112.344616 212.654489 
L 110.544662 212.654489 
L 108.744707 212.654489 
L 107.002816 212.654489 
L 105.202861 212.654489 
L 103.46097 212.654489 
L 101.661015 212.654489 
L 99.861061 212.654489 
L 98.119169 212.654489 
L 96.319215 212.654489 
L 94.577324 212.654489 
L 92.777369 212.654489 
L 91.151604 212.654489 
L 89.351649 212.654489 
L 87.551695 212.654489 
L 85.809803 212.654489 
L 84.009849 212.654489 
L 82.267958 212.654489 
L 80.468003 212.654489 
L 78.668049 212.654489 
L 76.926157 212.654489 
L 75.126203 212.654489 
L 73.384311 212.654489 
L 71.584357 212.654489 
L 69.958592 212.654489 
L 68.158637 212.654489 
L 66.358683 212.654489 
L 64.616791 212.654489 
L 62.816837 212.654489 
L 61.074945 212.654489 
L 59.274991 212.654489 
L 57.475037 212.654489 
L 55.733145 212.654489 
L 53.933191 212.654489 
L 52.191299 212.654489 
L 50.391345 212.654489 
L 48.765579 212.654489 
L 46.965625 212.654489 
L 45.165671 212.654489 
L 43.423779 212.654489 
L 41.623825 212.654489 
L 39.881933 212.654489 
L 38.081979 212.654489 
L 36.282024 212.654489 
L 34.540133 212.654489 
L 32.740178 212.654489 
L 30.998287 212.654489 
L 29.198333 212.654489 
L 27.514504 212.654489 
L 25.71455 212.654489 
L 23.914595 212.654489 
L 22.172704 212.654489 
L 20.372749 212.654489 
L 18.630858 212.654489 
L 16.830904 212.654489 
L 15.030949 212.654489 
L 13.289058 212.654489 
L 11.489103 212.654489 
L 9.747212 212.654489 
L 7.947257 212.654489 
L 6.321492 212.654489 
L 4.521538 212.654489 
L 2.721583 212.654489 
L 0.979692 212.654489 
L -0.820263 212.654489 
L -2.562154 212.654489 
L -4.362109 212.654489 
L -6.162063 212.654489 
L -7.903954 212.654489 
L -9.703909 212.654489 
L -11.4458 212.654489 
L -13.245755 212.654489 
L -14.87152 212.654489 
L -16.671475 212.654489 
L -18.471429 212.654489 
L -20.21332 212.654489 
L -22.013275 212.654489 
L -23.755166 212.654489 
L -25.555121 212.654489 
L -27.355075 212.654489 
L -29.096967 212.654489 
L -30.896921 212.654489 
L -32.638813 212.654489 
L -34.438767 212.654489 
L -36.064532 212.654489 
L -37.864487 212.654489 
L -39.664441 212.654489 
L -41.406333 212.654489 
L -43.206287 212.654489 
L -44.948179 212.654489 
L -46.748133 212.654489 
L -48.548087 212.654489 
L -50.289979 212.654489 
L -52.089933 212.654489 
L -53.831825 212.654489 
L -55.631779 212.654489 
L -57.315608 212.654489 
L -59.115562 212.654489 
L -60.915516 212.654489 
L -62.657408 212.654489 
L -64.457362 212.654489 
L -66.199254 212.654489 
L -67.999208 212.654489 
L -69.799163 212.654489 
L -71.541054 212.654489 
L -73.341009 212.654489 
L -75.0829 212.654489 
L -76.882854 212.654489 
L -78.50862 212.654489 
L -80.308574 212.654489 
L -82.108529 212.654489 
L -83.85042 212.654489 
L -85.650375 212.654489 
L -87.392266 212.654489 
L -89.19222 212.654489 
L -90.992175 212.654489 
L -92.734066 212.654489 
L -94.534021 212.654489 
L -96.275912 212.654489 
L -98.075867 212.654489 
L -99.701632 212.654489 
L -101.501586 212.654489 
L -103.301541 212.654489 
L -105.043432 212.654489 
L -106.843387 212.654489 
L -108.585278 212.654489 
L -110.385233 212.654489 
L -112.185187 212.654489 
L -113.927078 212.654489 
L -115.727033 212.654489 
L -117.468924 212.654489 
L -119.268879 212.654489 
L -120.894644 212.654489 
L -122.694599 212.654489 
L -124.494553 212.654489 
L -126.236444 212.654489 
L -128.036399 212.654489 
L -129.77829 212.654489 
L -131.578245 212.654489 
L -133.378199 212.654489 
L -135.120091 212.654489 
L -136.920045 212.654489 
L -138.661937 212.654489 
L -140.461891 212.654489 
L -142.145719 212.654489 
L -143.945674 212.654489 
L -145.745628 212.654489 
L -147.48752 212.654489 
L -149.287474 212.654489 
L -151.029366 212.654489 
L -152.82932 212.654489 
L -154.629274 212.654489 
L -156.371166 212.654489 
L -158.17112 212.654489 
L -159.913012 212.654489 
L -161.712966 212.654489 
L -163.338732 212.654489 
L -165.138686 212.654489 
L -166.93864 212.654489 
L -168.680532 212.654489 
L -170.480486 212.654489 
L -172.222378 212.654489 
L -174.022332 212.654489 
L -175.822287 212.654489 
L -177.564178 212.654489 
L -179.364133 212.654489 
L -181.106024 212.654489 
L -182.905978 212.654489 
L -184.531744 212.654489 
L -186.331698 212.654489 
L -188.131653 212.654489 
L -189.873544 212.654489 
L -191.673499 212.654489 
L -193.41539 212.654489 
L -195.215344 212.654489 
L -197.015299 212.654489 
L -198.75719 212.654489 
L -200.557145 212.654489 
L -202.299036 212.654489 
L -204.098991 212.654489 
L -205.724756 212.654489 
L -207.52471 212.654489 
L -209.324665 212.654489 
L -211.066556 212.654489 
L -212.866511 212.654489 
L -214.608402 212.654489 
L -216.408357 212.654489 
L -218.208311 212.654489 
L -219.950202 212.654489 
L -221.750157 212.654489 
L -223.492048 212.654489 
L -225.292003 212.654489 
L -226.975831 212.654489 
L -228.775786 212.654489 
L -230.57574 212.654489 
L -232.317631 212.654489 
L -234.117586 212.654489 
L -235.859477 212.654489 
L -237.659432 212.654489 
L -239.459386 212.654489 
L -241.201278 212.654489 
L -243.001232 212.654489 
L -244.743124 212.654489 
L -246.543078 212.654489 
L -248.168843 212.654489 
L -249.968798 212.654489 
L -251.768752 212.654489 
L -253.510644 212.654489 
L -255.310598 212.654489 
L -258.852444 212.654489 
L -260.652398 212.654489 
L -262.39429 212.654489 
L -264.194244 212.654489 
L -265.936136 212.654489 
L -267.73609 212.654489 
L -269.361856 212.654489 
L -271.16181 212.654489 
L -272.961764 212.654489 
L -274.703656 212.654489 
L -276.50361 212.654489 
L -278.245502 212.654489 
L -283.587302 212.654489 
L -285.387257 212.654489 
L -287.129148 212.654489 
L -288.929102 212.654489 
L -290.554868 212.654489 
L -292.354822 212.654489 
L -294.154777 212.654489 
L -295.896668 212.654489 
L -297.696622 212.654489 
L -299.438514 212.654489 
L -303.038423 212.654489 
L -304.780314 212.654489 
L -306.580269 212.654489 
L -308.32216 212.654489 
L -310.122115 212.654489 
L -311.805943 212.654489 
L -313.605897 212.654489 
L -315.405852 212.654489 
L -318.947698 212.654489 
L -320.689589 212.654489 
L -322.489544 212.654489 
L -324.289498 212.654489 
L -326.031389 212.654489 
L -327.831344 212.654489 
L -329.573235 212.654489 
L -331.37319 212.654489 
L -338.340755 212.654489 
L -340.14071 212.654489 
L -341.882601 212.654489 
L -343.682556 212.654489 
L -345.48251 212.654489 
L -347.224402 212.654489 
L -349.024356 212.654489 
L -350.766248 212.654489 
L -355.991922 212.654489 
L -357.791876 212.654489 
L -359.533768 212.654489 
L -361.333722 212.654489 
L -363.075613 212.654489 
L -364.875568 212.654489 
L -366.675522 212.654489 
L -370.217368 212.654489 
L -371.95926 212.654489 
L -373.759214 212.654489 
L -375.384979 212.654489 
L -377.184934 212.654489 
L -378.984888 212.654489 
L -380.72678 212.654489 
L -382.526734 212.654489 
L -384.268626 212.654489 
L -387.868535 212.654489 
L -391.41038 212.654489 
L -393.152272 212.654489 
L -394.952226 212.654489 
L -396.636055 212.654489 
L -398.436009 212.654489 
L -400.235964 212.654489 
L -401.977855 212.654489 
L -403.77781 212.654489 
L -407.319655 212.654489 
L -409.11961 212.654489 
L -410.861501 212.654489 
L -412.661456 212.654489 
L -414.403347 212.654489 
L -416.203302 212.654489 
L -417.829067 212.654489 
L -419.629021 212.654489 
L -421.428976 212.654489 
L -423.170867 212.654489 
L -426.712713 212.654489 
L -428.512668 212.654489 
L -430.312622 212.654489 
L -432.054513 212.654489 
L -433.854468 212.654489 
L -437.396314 212.654489 
L -439.022079 212.654489 
L -440.822034 212.654489 
L -442.621988 212.654489 
L -444.363879 212.654489 
L -446.163834 212.654489 
L -447.905725 212.654489 
L -449.70568 212.654489 
L -451.505634 212.654489 
L -455.04748 212.654489 
L -456.789371 212.654489 
L -458.589326 212.654489 
L -462.015046 212.654489 
L -463.815 212.654489 
L -465.556892 212.654489 
L -469.098737 212.654489 
L -470.898692 212.654489 
L -472.698646 212.654489 
L -474.440538 212.654489 
L -476.240492 212.654489 
L -477.982384 212.654489 
L -479.782338 212.654489 
L -481.466167 212.654489 
L -483.266121 212.654489 
L -486.807967 212.654489 
L -490.349813 212.654489 
L -492.149767 212.654489 
L -493.949722 212.654489 
L -495.691613 212.654489 
L -499.233459 212.654489 
L -501.033413 212.654489 
L -502.659179 212.654489 
L -504.459133 212.654489 
L -506.259088 212.654489 
L -509.800933 212.654489 
L -511.542825 212.654489 
L -513.342779 212.654489 
L -515.142734 212.654489 
L -516.884625 212.654489 
L -518.68458 212.654489 
L -520.426471 212.654489 
L -522.226426 212.654489 
L -523.852191 212.654489 
L -525.652145 212.654489 
L -527.4521 212.654489 
L -529.193991 212.654489 
L -532.735837 212.654489 
L -534.535792 212.654489 
L -536.335746 212.654489 
L -539.877592 212.654489 
L -541.619483 212.654489 
L -543.419438 212.654489 
L -546.845158 212.654489 
L -548.645112 212.654489 
L -550.387003 212.654489 
L -552.186958 212.654489 
L -553.928849 212.654489 
L -555.728804 212.654489 
L -559.27065 212.654489 
L -561.070604 212.654489 
L -564.61245 212.654489 
L -566.296278 212.654489 
L -568.096233 212.654489 
L -569.896187 212.654489 
L -571.638079 212.654489 
L -573.438033 212.654489 
L -578.779833 212.654489 
L -580.521725 212.654489 
L -584.063571 212.654489 
L -591.089199 212.654489 
L -594.631045 212.654489 
L -598.172891 212.654489 
L -599.972846 212.654489 
L -601.714737 212.654489 
L -605.256583 212.654489 
L -607.056537 212.654489 
L -608.682303 212.654489 
L -610.482257 212.654489 
L -612.282212 212.654489 
L -614.024103 212.654489 
L -615.824057 212.654489 
L -617.565949 212.654489 
L -619.365903 212.654489 
L -621.165858 212.654489 
L -622.907749 212.654489 
L -624.707704 212.654489 
L -626.449595 212.654489 
L -628.24955 212.654489 
L -629.875315 212.654489 
L -631.675269 212.654489 
L -635.217115 212.654489 
L -638.758961 212.654489 
L -640.558916 212.654489 
L -644.100761 212.654489 
L -645.900716 212.654489 
L -647.642607 212.654489 
L -649.442562 212.654489 
L -651.12639 212.654489 
L -652.926345 212.654489 
L -654.726299 212.654489 
L -656.46819 212.654489 
L -658.268145 212.654489 
L -660.010036 212.654489 
L -663.609945 212.654489 
L -665.351837 212.654489 
L -667.151791 212.654489 
L -670.693637 212.654489 
L -672.319402 212.654489 
L -674.119357 212.654489 
L -675.919311 212.654489 
L -679.461157 212.654489 
L -681.203048 212.654489 
L -683.003003 212.654489 
L -684.802957 212.654489 
L -686.544849 212.654489 
L -688.344803 212.654489 
L -690.086695 212.654489 
L -691.886649 212.654489 
L -695.312369 212.654489 
L -697.112323 212.654489 
L -698.854215 212.654489 
L -700.654169 212.654489 
L -702.396061 212.654489 
L -704.196015 212.654489 
L -705.99597 212.654489 
L -707.737861 212.654489 
L -709.537815 212.654489 
L -713.079661 212.654489 
L -714.705427 212.654489 
L -716.505381 212.654489 
L -718.305336 212.654489 
L -720.047227 212.654489 
L -723.589073 212.654489 
L -725.389027 212.654489 
L -727.188982 212.654489 
L -728.930873 212.654489 
L -730.730828 212.654489 
L -732.472719 212.654489 
L -735.956502 212.654489 
L -739.556411 212.654489 
L -741.298302 212.654489 
L -743.098257 212.654489 
L -746.640103 212.654489 
L -748.440057 212.654489 
L -750.181948 212.654489 
L -751.981903 212.654489 
L -753.723794 212.654489 
L -755.523749 212.654489 
L -758.949469 212.654489 
L -760.749423 212.654489 
L -762.491314 212.654489 
L -764.291269 212.654489 
L -766.03316 212.654489 
L -767.833115 212.654489 
L -769.633069 212.654489 
L -771.374961 212.654489 
L -773.174915 212.654489 
L -774.916806 212.654489 
L -776.716761 212.654489 
L -778.342526 212.654489 
L -780.142481 212.654489 
L -781.942435 212.654489 
L -785.484281 212.654489 
L -787.226172 212.654489 
L -790.826081 212.654489 
L -792.567973 212.654489 
L -794.367927 212.654489 
L -796.109819 212.654489 
L -797.909773 212.654489 
L -799.535538 212.654489 
L -801.335493 212.654489 
L -803.135447 212.654489 
L -804.877339 212.654489 
L -806.677293 212.654489 
L -808.419185 212.654489 
L -810.219139 212.654489 
L -812.019094 212.654489 
L -813.760985 212.654489 
L -817.302831 212.654489 
L -819.102785 212.654489 
L -820.786614 212.654489 
L -822.586568 212.654489 
L -824.386523 212.654489 
L -827.928368 212.654489 
L -829.67026 212.654489 
L -831.470214 212.654489 
L -833.270169 212.654489 
L -835.01206 212.654489 
L -836.812015 212.654489 
L -838.553906 212.654489 
L -840.353861 212.654489 
L -841.979626 212.654489 
L -843.77958 212.654489 
L -845.579535 212.654489 
L -847.321426 212.654489 
L -849.121381 212.654489 
L -850.863272 212.654489 
L -852.663227 212.654489 
L -854.463181 212.654489 
L -856.205072 212.654489 
L -858.005027 212.654489 
L -859.746918 212.654489 
L -861.546873 212.654489 
L -863.172638 212.654489 
L -864.972592 212.654489 
L -866.772547 212.654489 
L -870.314393 212.654489 
L -872.056284 212.654489 
L -873.856239 212.654489 
L -875.656193 212.654489 
L -879.198039 212.654489 
L -880.93993 212.654489 
L -882.739885 212.654489 
L -884.36565 212.654489 
L -886.165605 212.654489 
L -887.965559 212.654489 
L -889.707451 212.654489 
L -893.249296 212.654489 
L -896.849205 212.654489 
L -898.591097 212.654489 
L -900.391051 212.654489 
L -902.132943 212.654489 
L -903.932897 212.654489 
L -905.616725 212.654489 
L -907.41668 212.654489 
L -909.216634 212.654489 
L -910.958526 212.654489 
L -912.75848 212.654489 
L -916.300326 212.654489 
L -918.100281 212.654489 
L -919.842172 212.654489 
L -921.642126 212.654489 
L -923.384018 212.654489 
L -926.809738 212.654489 
L -930.409647 212.654489 
L -932.151538 212.654489 
L -933.951492 212.654489 
L -935.693384 212.654489 
L -939.293293 212.654489 
L -942.835139 212.654489 
L -944.57703 212.654489 
L -948.00275 212.654489 
L -951.602659 212.654489 
L -953.34455 212.654489 
L -955.144505 212.654489 
L -956.886396 212.654489 
L -958.68635 212.654489 
L -960.486305 212.654489 
L -962.228196 212.654489 
L -964.028151 212.654489 
L -965.770042 212.654489 
L -967.569997 212.654489 
L -970.995716 212.654489 
L -976.337517 212.654489 
L -978.079408 212.654489 
L -979.879363 212.654489 
L -981.679317 212.654489 
L -983.421209 212.654489 
L -985.221163 212.654489 
L -986.963054 212.654489 
L -988.763009 212.654489 
L -990.446837 212.654489 
L -992.246792 212.654489 
L -994.046746 212.654489 
L -997.588592 212.654489 
L -999.330483 212.654489 
L -1001.130438 212.654489 
L -1002.930392 212.654489 
L -1004.672284 212.654489 
L -1008.21413 212.654489 
L -1011.639849 212.654489 
L -1013.439804 212.654489 
L -1015.239758 212.654489 
L -1016.98165 212.654489 
L -1018.781604 212.654489 
L -1020.523496 212.654489 
L -1022.32345 212.654489 
L -1024.123405 212.654489 
L -1025.865296 212.654489 
L -1027.66525 212.654489 
L -1029.407142 212.654489 
L -1032.832862 212.654489 
L -1034.632816 212.654489 
L -1038.174662 212.654489 
L -1039.974616 212.654489 
L -1041.716508 212.654489 
L -1045.316417 212.654489 
L -1047.058308 212.654489 
L -1052.400108 212.654489 
L -1054.025874 212.654489 
L -1055.825828 212.654489 
L -1057.625783 212.654489 
L -1059.367674 212.654489 
L -1061.167629 212.654489 
L -1066.509429 212.654489 
L -1068.25132 212.654489 
L -1070.051275 212.654489 
L -1071.793166 212.654489 
L -1073.593121 212.654489 
L -1075.276949 212.654489 
L -1077.076903 212.654489 
L -1078.876858 212.654489 
L -1080.618749 212.654489 
L -1084.160595 212.654489 
L -1085.96055 212.654489 
L -1087.760504 212.654489 
L -1091.30235 212.654489 
L -1093.044241 212.654489 
L -1094.844196 212.654489 
L -1100.06987 212.654489 
L -1101.811762 212.654489 
L -1103.611716 212.654489 
L -1105.353607 212.654489 
L -1108.953516 212.654489 
L -1112.495362 212.654489 
L -1116.037208 212.654489 
L -1117.662973 212.654489 
L -1119.462928 212.654489 
L -1121.262882 212.654489 
L -1123.004774 212.654489 
L -1126.54662 212.654489 
L -1131.88842 212.654489 
L -1135.430266 212.654489 
L -1137.23022 212.654489 
L -1140.65594 212.654489 
L -1142.455894 212.654489 
L -1145.99774 212.654489 
L -1147.739632 212.654489 
L -1153.081432 212.654489 
L -1154.881387 212.654489 
L -1156.623278 212.654489 
L -1158.423232 212.654489 
L -1160.107061 212.654489 
L -1161.907015 212.654489 
L -1163.70697 212.654489 
L -1167.248816 212.654489 
L -1168.990707 212.654489 
L -1170.790661 212.654489 
L -1172.590616 212.654489 
L -1176.132462 212.654489 
L -1177.874353 212.654489 
L -1183.100027 212.654489 
L -1195.52552 212.654489 
L -1197.325474 212.654489 
L -1204.29304 212.654489 
L -1206.092994 212.654489 
L -1209.63484 212.654489 
L -1214.97664 212.654489 
L -1216.718532 212.654489 
L -1225.486052 212.654489 
L -1227.286006 212.654489 
L -1232.569744 212.654489 
L -1236.169652 212.654489 
L -1241.45339 212.654489 
L -1243.253344 212.654489 
L -1255.620773 212.654489 
L -1259.162619 212.654489 
L -1266.130185 212.654489 
L -1269.730094 212.654489 
L -1271.471985 212.654489 
L -1275.013831 212.654489 
L -1280.355631 212.654489 
L -1283.897477 212.654489 
L -1301.548644 212.654489 
L -1306.890444 212.654489 
L -1308.516209 212.654489 
L -1313.858009 212.654489 
L -1322.741656 212.654489 
L -1326.283502 212.654489 
L -1349.334531 212.654489 
L -1350.960297 212.654489 
L -1363.443852 212.654489 
L -1368.727589 212.654489 
L -1411.113613 212.654489 
L -1421.739151 212.654489 
L -1423.481042 212.654489 
L -1494.201834 212.654489 
L -1510.111109 212.654489 
L -1543.613487 212.654489 
L -1651.436565 212.654489 
L -1653.178457 212.654489 
L -1654.978411 212.654489 
L -1656.720303 212.654489 
L -1658.520257 212.654489 
L -1663.862057 212.654489 
L -1665.603949 212.654489 
L -1667.403903 212.654489 
L -1669.087732 212.654489 
L -1670.887686 212.654489 
L -1674.429532 212.654489 
L -1677.971378 212.654489 
L -1679.771332 212.654489 
L -1681.571287 212.654489 
L -1683.313178 212.654489 
L -1685.113133 212.654489 
L -1686.855024 212.654489 
L -1688.654978 212.654489 
L -1692.080698 212.654489 
L -1697.422499 212.654489 
L -1699.16439 212.654489 
L -1702.764299 212.654489 
L -1706.306145 212.654489 
L -1713.27371 212.654489 
L -1715.073665 212.654489 
L -1718.615511 212.654489 
L -1722.157357 212.654489 
L -1725.699202 212.654489 
L -1732.666768 212.654489 
L -1738.008568 212.654489 
L -1778.710764 212.654489 
L -1789.336302 212.654489 
L -1791.136257 212.654489 
L -1794.678102 212.654489 
L -1798.103822 212.654489 
L -1805.187514 212.654489 
L -1806.987468 212.654489 
L -1808.787423 212.654489 
L -1814.07116 212.654489 
L -1815.871115 212.654489 
L -1824.638635 212.654489 
L -1826.380526 212.654489 
L -1829.980435 212.654489 
L -1837.064127 212.654489 
L -1838.747955 212.654489 
L -1849.431556 212.654489 
L -1852.973402 212.654489 
L -1856.515248 212.654489 
L -1861.740922 212.654489 
L -1865.282768 212.654489 
L -1870.624568 212.654489 
L -1872.424522 212.654489 
L -1881.133979 212.654489 
L -1884.733888 212.654489 
L -1888.275734 212.654489 
L -1900.701226 212.654489 
L -1902.326992 212.654489 
L -1904.126946 212.654489 
L -1907.668792 212.654489 
L -1913.010592 212.654489 
L -1914.810547 212.654489 
L -1916.552438 212.654489 
L -1921.894239 212.654489 
L -1925.378021 212.654489 
L -1927.177976 212.654489 
L -1934.261668 212.654489 
L -1936.061622 212.654489 
L -1937.803513 212.654489 
L -1943.145314 212.654489 
L -1960.79648 212.654489 
L -1964.338326 212.654489 
L -1969.564 212.654489 
L -1973.105846 212.654489 
L -1974.847737 212.654489 
L -1976.647692 212.654489 
L -1978.447646 212.654489 
L -2001.38255 212.654489 
L -2012.008088 212.654489 
L -2017.291825 212.654489 
L -2027.975426 212.654489 
L -2042.084746 212.654489 
L -2172.842728 212.654489 
L -2174.584619 212.654489 
L -2178.010339 212.654489 
L -2179.810294 212.654489 
z
" clip-path="url(#p5a3c67d773)" style="fill: #f59e0b; fill-opacity: 0.35; stroke: #f59e0b; stroke-opacity: 0.35"/>
   </g>
   <g id="matplotlib.axis_1">
    <g id="xtick_1">
     <g id="line2d_1">
      <path d="M 110.544662 221.718125 
L 110.544662 22.318125 
" clip-path="url(#p5a3c67d773)" style="fill: none; stroke: #b0b0b0; stroke-opacity: 0.3; stroke-width: 0.8; stroke-linecap: square"/>
     </g>
     <g id="line2d_2">
      <defs>
       <path id="m4a48f9128b" d="M 0 0 
L 0 3.5 
" style="stroke: #000000; stroke-width: 0.8"/>
      </defs>
      <g>
       <use xlink:href="#m4a48f9128b" x="110.544662" y="221.718125" style="stroke: #000000; stroke-width: 0.8"/>
      </g>
     </g>
     <g id="text_1">
      <!-- 2008 -->
      <g transform="translate(97.819662 236.316562) scale(0.1 -0.1)">
       <defs>
        <path id="DejaVuSans-32" d="M 1228 531 
L 3431 531 
L 3431 0 
L 469 0 
L 469 531 
Q 828 903 1448 1529 
Q 2069 2156 2228 2338 
Q 2531 2678 2651 2914 
Q 2772 3150 2772 3378 
Q 2772 3750 2511 3984 
Q 2250 4219 1831 4219 
Q 1534 4219 1204 4116 
Q 875 4013 500 3803 
L 500 4441 
Q 881 4594 1212 4672 
Q 1544 4750 1819 4750 
Q 2544 4750 2975 4387 
Q 3406 4025 3406 3419 
Q 3406 3131 3298 2873 
Q 3191 2616 2906 2266 
Q 2828 2175 2409 1742 
Q 1991 1309 1228 531 
z
" transform="scale(0.015625)"/>
        <path id="DejaVuSans-30" d="M 2034 4250 
Q 1547 4250 1301 3770 
Q 1056 3291 1056 2328 
Q 1056 1369 1301 889 
Q 1547 409 2034 409 
Q 2525 409 2770 889 
Q 3016 1369 3016 2328 
Q 3016 3291 2770 3770 
Q 2525 4250 2034 4250 
z
M 2034 4750 
Q 2819 4750 3233 4129 
Q 3647 3509 3647 2328 
Q 3647 1150 3233 529 
Q 2819 -91 2034 -91 
Q 1250 -91 836 529 
Q 422 1150 422 2328 
Q 422 3509 836 4129 
Q 1250 4750 2034 4750 
z
" transform="scale(0.015625)"/>
        <path id="DejaVuSans-38" d="M 2034 2216 
Q 1584 2216 1326 1975 
Q 1069 1734 1069 1313 
Q 1069 891 1326 650 
Q 1584 409 2034 409 
Q 2484 409 2743 651 
Q 3003 894 3003 1313 
Q 3003 1734 2745 1975 
Q 2488 2216 2034 2216 
z
M 1403 2484 
Q 997 2584 770 2862 
Q 544 3141 544 3541 
Q 544 4100 942 4425 
Q 1341 4750 2034 4750 
Q 2731 4750 3128 4425 
Q 3525 4100 3525 3541 
Q 3525 3141 3298 2862 
Q 3072 2584 2669 2484 
Q 3125 2378 3379 2068 
Q 3634 1759 3634 1313 
Q 3634 634 3220 271 
Q 2806 -91 2034 -91 
Q 1263 -91 848 271 
Q 434 634 434 1313 
Q 434 1759 690 2068 
Q 947 2378 1403 2484 
z
M 1172 3481 
Q 1172 3119 1398 2916 
Q 1625 2713 2034 2713 
Q 2441 2713 2670 2916 
Q 2900 3119 2900 3481 
Q 2900 3844 2670 4047 
Q 2441 4250 2034 4250 
Q 1625 4250 1398 4047 
Q 1172 3844 1172 3481 
z
" transform="scale(0.015625)"/>
       </defs>
       <use xlink:href="#DejaVuSans-32"/>
       <use xlink:href="#DejaVuSans-30" transform="translate(63.623047 0)"/>
       <use xlink:href="#DejaVuSans-30" transform="translate(127.246094 0)"/>
       <use xlink:href="#DejaVuSans-38" transform="translate(190.869141 0)"/>
      </g>
     </g>
    </g>
    <g id="xtick_2">
     <g id="line2d_3">
      <path d="M 195.374773 221.718125 
L 195.374773 22.318125 
" clip-path="url(#p5a3c67d773)" style="fill: none; stroke: #b0b0b0; stroke-opacity: 0.3; stroke-width: 0.8; stroke-linecap: square"/>
     </g>
     <g id="line2d_4">
      <g>
       <use xlink:href="#m4a48f9128b" x="195.374773" y="221.718125" style="stroke: #000000; stroke-width: 0.8"/>
      </g>
     </g>
     <g id="text_2">
      <!-- 2012 -->
      <g transform="translate(182.649773 236.316562) scale(0.1 -0.1)">
       <defs>
        <path id="DejaVuSans-31" d="M 794 531 
L 1825 531 
L 1825 4091 
L 703 3866 
L 703 4441 
L 1819 4666 
L 2450 4666 
L 2450 531 
L 3481 531 
L 3481 0 
L 794 0 
L 794 531 
z
" transform="scale(0.015625)"/>
       </defs>
       <use xlink:href="#DejaVuSans-32"/>
       <use xlink:href="#DejaVuSans-30" transform="translate(63.623047 0)"/>
       <use xlink:href="#DejaVuSans-31" transform="translate(127.246094 0)"/>
       <use xlink:href="#DejaVuSans-32" transform="translate(190.869141 0)"/>
      </g>
     </g>
    </g>
    <g id="xtick_3">
     <g id="line2d_5">
      <path d="M 280.204885 221.718125 
L 280.204885 22.318125 
" clip-path="url(#p5a3c67d773)" style="fill: none; stroke: #b0b0b0; stroke-opacity: 0.3; stroke-width: 0.8; stroke-linecap: square"/>
     </g>
     <g id="line2d_6">
      <g>
       <use xlink:href="#m4a48f9128b" x="280.204885" y="221.718125" style="stroke: #000000; stroke-width: 0.8"/>
      </g>
     </g>
     <g id="text_3">
      <!-- 2016 -->
      <g transform="translate(267.479885 236.316562) scale(0.1 -0.1)">
       <defs>
        <path id="DejaVuSans-36" d="M 2113 2584 
Q 1688 2584 1439 2293 
Q 1191 2003 1191 1497 
Q 1191 994 1439 701 
Q 1688 409 2113 409 
Q 2538 409 2786 701 
Q 3034 994 3034 1497 
Q 3034 2003 2786 2293 
Q 2538 2584 2113 2584 
z
M 3366 4563 
L 3366 3988 
Q 3128 4100 2886 4159 
Q 2644 4219 2406 4219 
Q 1781 4219 1451 3797 
Q 1122 3375 1075 2522 
Q 1259 2794 1537 2939 
Q 1816 3084 2150 3084 
Q 2853 3084 3261 2657 
Q 3669 2231 3669 1497 
Q 3669 778 3244 343 
Q 2819 -91 2113 -91 
Q 1303 -91 875 529 
Q 447 1150 447 2328 
Q 447 3434 972 4092 
Q 1497 4750 2381 4750 
Q 2619 4750 2861 4703 
Q 3103 4656 3366 4563 
z
" transform="scale(0.015625)"/>
       </defs>
       <use xlink:href="#DejaVuSans-32"/>
       <use xlink:href="#DejaVuSans-30" transform="translate(63.623047 0)"/>
       <use xlink:href="#DejaVuSans-31" transform="translate(127.246094 0)"/>
       <use xlink:href="#DejaVuSans-36" transform="translate(190.869141 0)"/>
      </g>
     </g>
    </g>
    <g id="xtick_4">
     <g id="line2d_7">
      <path d="M 365.034997 221.718125 
L 365.034997 22.318125 
" clip-path="url(#p5a3c67d773)" style="fill: none; stroke: #b0b0b0; stroke-opacity: 0.3; stroke-width: 0.8; stroke-linecap: square"/>
     </g>
     <g id="line2d_8">
      <g>
       <use xlink:href="#m4a48f9128b" x="365.034997" y="221.718125" style="stroke: #000000; stroke-width: 0.8"/>
      </g>
     </g>
     <g id="text_4">
      <!-- 2020 -->
      <g transform="translate(352.309997 236.316562) scale(0.1 -0.1)">
       <use xlink:href="#DejaVuSans-32"/>
       <use xlink:href="#DejaVuSans-30" transform="translate(63.623047 0)"/>
       <use xlink:href="#DejaVuSans-32" transform="translate(127.246094 0)"/>
       <use xlink:href="#DejaVuSans-30" transform="translate(190.869141 0)"/>
      </g>
     </g>
    </g>
    <g id="xtick_5">
     <g id="line2d_9">
      <path d="M 449.865109 221.718125 
L 449.865109 22.318125 
" clip-path="url(#p5a3c67d773)" style="fill: none; stroke: #b0b0b0; stroke-opacity: 0.3; stroke-width: 0.8; stroke-linecap: square"/>
     </g>
     <g id="line2d_10">
      <g>
       <use xlink:href="#m4a48f9128b" x="449.865109" y="221.718125" style="stroke: #000000; stroke-width: 0.8"/>
      </g>
     </g>
     <g id="text_5">
      <!-- 2024 -->
      <g transform="translate(437.140109 236.316562) scale(0.1 -0.1)">
       <defs>
        <path id="DejaVuSans-34" d="M 2419 4116 
L 825 1625 
L 2419 1625 
L 2419 4116 
z
M 2253 4666 
L 3047 4666 
L 3047 1625 
L 3713 1625 
L 3713 1100 
L 3047 1100 
L 3047 0 
L 2419 0 
L 2419 1100 
L 313 1100 
L 313 1709 
L 2253 4666 
z
" transform="scale(0.015625)"/>
       </defs>
       <use xlink:href="#DejaVuSans-32"/>
       <use xlink:href="#DejaVuSans-30" transform="translate(63.623047 0)"/>
       <use xlink:href="#DejaVuSans-32" transform="translate(127.246094 0)"/>
       <use xlink:href="#DejaVuSans-34" transform="translate(190.869141 0)"/>
      </g>
     </g>
    </g>
    <g id="xtick_6">
     <g id="line2d_11">
      <path d="M 534.69522 221.718125 
L 534.69522 22.318125 
" clip-path="url(#p5a3c67d773)" style="fill: none; stroke: #b0b0b0; stroke-opacity: 0.3; stroke-width: 0.8; stroke-linecap: square"/>
     </g>
     <g id="line2d_12">
      <g>
       <use xlink:href="#m4a48f9128b" x="534.69522" y="221.718125" style="stroke: #000000; stroke-width: 0.8"/>
      </g>
     </g>
     <g id="text_6">
      <!-- 2028 -->
      <g transform="translate(521.97022 236.316562) scale(0.1 -0.1)">
       <use xlink:href="#DejaVuSans-32"/>
       <use xlink:href="#DejaVuSans-30" transform="translate(63.623047 0)"/>
       <use xlink:href="#DejaVuSans-32" transform="translate(127.246094 0)"/>
       <use xlink:href="#DejaVuSans-38" transform="translate(190.869141 0)"/>
      </g>
     </g>
    </g>
    <g id="xtick_7">
     <g id="line2d_13">
      <path d="M 619.525332 221.718125 
L 619.525332 22.318125 
" clip-path="url(#p5a3c67d773)" style="fill: none; stroke: #b0b0b0; stroke-opacity: 0.3; stroke-width: 0.8; stroke-linecap: square"/>
     </g>
     <g id="line2d_14">
      <g>
       <use xlink:href="#m4a48f9128b" x="619.525332" y="221.718125" style="stroke: #000000; stroke-width: 0.8"/>
      </g>
     </g>
     <g id="text_7">
      <!-- 2032 -->
      <g transform="translate(606.800332 236.316562) scale(0.1 -0.1)">
       <defs>
        <path id="DejaVuSans-33" d="M 2597 2516 
Q 3050 2419 3304 2112 
Q 3559 1806 3559 1356 
Q 3559 666 3084 287 
Q 2609 -91 1734 -91 
Q 1441 -91 1130 -33 
Q 819 25 488 141 
L 488 750 
Q 750 597 1062 519 
Q 1375 441 1716 441 
Q 2309 441 2620 675 
Q 2931 909 2931 1356 
Q 2931 1769 2642 2001 
Q 2353 2234 1838 2234 
L 1294 2234 
L 1294 2753 
L 1863 2753 
Q 2328 2753 2575 2939 
Q 2822 3125 2822 3475 
Q 2822 3834 2567 4026 
Q 2313 4219 1838 4219 
Q 1578 4219 1281 4162 
Q 984 4106 628 3988 
L 628 4550 
Q 988 4650 1302 4700 
Q 1616 4750 1894 4750 
Q 2613 4750 3031 4423 
Q 3450 4097 3450 3541 
Q 3450 3153 3228 2886 
Q 3006 2619 2597 2516 
z
" transform="scale(0.015625)"/>
       </defs>
       <use xlink:href="#DejaVuSans-32"/>
       <use xlink:href="#DejaVuSans-30" transform="translate(63.623047 0)"/>
       <use xlink:href="#DejaVuSans-33" transform="translate(127.246094 0)"/>
       <use xlink:href="#DejaVuSans-32" transform="translate(190.869141 0)"/>
      </g>
     </g>
    </g>
   </g>
   <g id="matplotlib.axis_2">
    <g id="ytick_1">
     <g id="line2d_15">
      <path d="M 46.965625 212.654489 
L 633.231115 212.654489 
" clip-path="url(#p5a3c67d773)" style="fill: none; stroke: #b0b0b0; stroke-opacity: 0.3; stroke-width: 0.8; stroke-linecap: square"/>
     </g>
     <g id="line2d_16">
      <defs>
       <path id="m4e5331100d" d="M 0 0 
L -3.5 0 
" style="stroke: #000000; stroke-width: 0.8"/>
      </defs>
      <g>
       <use xlink:href="#m4e5331100d" x="46.965625" y="212.654489" style="stroke: #000000; stroke-width: 0.8"/>
      </g>
     </g>
     <g id="text_8">
      <!-- 0 -->
      <g transform="translate(33.603125 216.453707) scale(0.1 -0.1)">
       <use xlink:href="#DejaVuSans-30"/>
      </g>
     </g>
    </g>
    <g id="ytick_2">
     <g id="line2d_17">
      <path d="M 46.965625 181.790065 
L 633.231115 181.790065 
" clip-path="url(#p5a3c67d773)" style="fill: none; stroke: #b0b0b0; stroke-opacity: 0.3; stroke-width: 0.8; stroke-linecap: square"/>
     </g>
     <g id="line2d_18">
      <g>
       <use xlink:href="#m4e5331100d" x="46.965625" y="181.790065" style="stroke: #000000; stroke-width: 0.8"/>
      </g>
     </g>
     <g id="text_9">
      <!-- 20 -->
      <g transform="translate(27.240625 185.589283) scale(0.1 -0.1)">
       <use xlink:href="#DejaVuSans-32"/>
       <use xlink:href="#DejaVuSans-30" transform="translate(63.623047 0)"/>
      </g>
     </g>
    </g>
    <g id="ytick_3">
     <g id="line2d_19">
      <path d="M 46.965625 150.925641 
L 633.231115 150.925641 
" clip-path="url(#p5a3c67d773)" style="fill: none; stroke: #b0b0b0; stroke-opacity: 0.3; stroke-width: 0.8; stroke-linecap: square"/>
     </g>
     <g id="line2d_20">
      <g>
       <use xlink:href="#m4e5331100d" x="46.965625" y="150.925641" style="stroke: #000000; stroke-width: 0.8"/>
      </g>
     </g>
     <g id="text_10">
      <!-- 40 -->
      <g transform="translate(27.240625 154.724859) scale(0.1 -0.1)">
       <use xlink:href="#DejaVuSans-34"/>
       <use xlink:href="#DejaVuSans-30" transform="translate(63.623047 0)"/>
      </g>
     </g>
    </g>
    <g id="ytick_4">
     <g id="line2d_21">
      <path d="M 46.965625 120.061217 
L 633.231115 120.061217 
" clip-path="url(#p5a3c67d773)" style="fill: none; stroke: #b0b0b0; stroke-opacity: 0.3; stroke-width: 0.8; stroke-linecap: square"/>
     </g>
     <g id="line2d_22">
      <g>
       <use xlink:href="#m4e5331100d" x="46.965625" y="120.061217" style="stroke: #000000; stroke-width: 0.8"/>
      </g>
     </g>
     <g id="text_11">
      <!-- 60 -->
      <g transform="translate(27.240625 123.860436) scale(0.1 -0.1)">
       <use xlink:href="#DejaVuSans-36"/>
       <use xlink:href="#DejaVuSans-30" transform="translate(63.623047 0)"/>
      </g>
     </g>
    </g>
    <g id="ytick_5">
     <g id="line2d_23">
      <path d="M 46.965625 89.196793 
L 633.231115 89.196793 
" clip-path="url(#p5a3c67d773)" style="fill: none; stroke: #b0b0b0; stroke-opacity: 0.3; stroke-width: 0.8; stroke-linecap: square"/>
     </g>
     <g id="line2d_24">
      <g>
       <use xlink:href="#m4e5331100d" x="46.965625" y="89.196793" style="stroke: #000000; stroke-width: 0.8"/>
      </g>
     </g>
     <g id="text_12">
      <!-- 80 -->
      <g transform="translate(27.240625 92.996012) scale(0.1 -0.1)">
       <use xlink:href="#DejaVuSans-38"/>
       <use xlink:href="#DejaVuSans-30" transform="translate(63.623047 0)"/>
      </g>
     </g>
    </g>
    <g id="ytick_6">
     <g id="line2d_25">
      <path d="M 46.965625 58.332369 
L 633.231115 58.332369 
" clip-path="url(#p5a3c67d773)" style="fill: none; stroke: #b0b0b0; stroke-opacity: 0.3; stroke-width: 0.8; stroke-linecap: square"/>
     </g>
     <g id="line2d_26">
      <g>
       <use xlink:href="#m4e5331100d" x="46.965625" y="58.332369" style="stroke: #000000; stroke-width: 0.8"/>
      </g>
     </g>
     <g id="text_13">
      <!-- 100 -->
      <g transform="translate(20.878125 62.131588) scale(0.1 -0.1)">
       <use xlink:href="#DejaVuSans-31"/>
       <use xlink:href="#DejaVuSans-30" transform="translate(63.623047 0)"/>
       <use xlink:href="#DejaVuSans-30" transform="translate(127.246094 0)"/>
      </g>
     </g>
    </g>
    <g id="ytick_7">
     <g id="line2d_27">
      <path d="M 46.965625 27.467945 
L 633.231115 27.467945 
" clip-path="url(#p5a3c67d773)" style="fill: none; stroke: #b0b0b0; stroke-opacity: 0.3; stroke-width: 0.8; stroke-linecap: square"/>
     </g>
     <g id="line2d_28">
      <g>
       <use xlink:href="#m4e5331100d" x="46.965625" y="27.467945" style="stroke: #000000; stroke-width: 0.8"/>
      </g>
     </g>
     <g id="text_14">
      <!-- 120 -->
      <g transform="translate(20.878125 31.267164) scale(0.1 -0.1)">
       <use xlink:href="#DejaVuSans-31"/>
       <use xlink:href="#DejaVuSans-32" transform="translate(63.623047 0)"/>
       <use xlink:href="#DejaVuSans-30" transform="translate(127.246094 0)"/>
      </g>
     </g>
    </g>
    <g id="text_15">
     <!-- Cumulative PV [GW] -->
     <g transform="translate(14.798438 172.888438) rotate(-90) scale(0.1 -0.1)">
      <defs>
       <path id="DejaVuSans-43" d="M 4122 4306 
L 4122 3641 
Q 3803 3938 3442 4084 
Q 3081 4231 2675 4231 
Q 1875 4231 1450 3742 
Q 1025 3253 1025 2328 
Q 1025 1406 1450 917 
Q 1875 428 2675 428 
Q 3081 428 3442 575 
Q 3803 722 4122 1019 
L 4122 359 
Q 3791 134 3420 21 
Q 3050 -91 2638 -91 
Q 1578 -91 968 557 
Q 359 1206 359 2328 
Q 359 3453 968 4101 
Q 1578 4750 2638 4750 
Q 3056 4750 3426 4639 
Q 3797 4528 4122 4306 
z
" transform="scale(0.015625)"/>
       <path id="DejaVuSans-75" d="M 544 1381 
L 544 3500 
L 1119 3500 
L 1119 1403 
Q 1119 906 1312 657 
Q 1506 409 1894 409 
Q 2359 409 2629 706 
Q 2900 1003 2900 1516 
L 2900 3500 
L 3475 3500 
L 3475 0 
L 2900 0 
L 2900 538 
Q 2691 219 2414 64 
Q 2138 -91 1772 -91 
Q 1169 -91 856 284 
Q 544 659 544 1381 
z
M 1991 3584 
L 1991 3584 
z
" transform="scale(0.015625)"/>
       <path id="DejaVuSans-6d" d="M 3328 2828 
Q 3544 3216 3844 3400 
Q 4144 3584 4550 3584 
Q 5097 3584 5394 3201 
Q 5691 2819 5691 2113 
L 5691 0 
L 5113 0 
L 5113 2094 
Q 5113 2597 4934 2840 
Q 4756 3084 4391 3084 
Q 3944 3084 3684 2787 
Q 3425 2491 3425 1978 
L 3425 0 
L 2847 0 
L 2847 2094 
Q 2847 2600 2669 2842 
Q 2491 3084 2119 3084 
Q 1678 3084 1418 2786 
Q 1159 2488 1159 1978 
L 1159 0 
L 581 0 
L 581 3500 
L 1159 3500 
L 1159 2956 
Q 1356 3278 1631 3431 
Q 1906 3584 2284 3584 
Q 2666 3584 2933 3390 
Q 3200 3197 3328 2828 
z
" transform="scale(0.015625)"/>
       <path id="DejaVuSans-6c" d="M 603 4863 
L 1178 4863 
L 1178 0 
L 603 0 
L 603 4863 
z
" transform="scale(0.015625)"/>
       <path id="DejaVuSans-61" d="M 2194 1759 
Q 1497 1759 1228 1600 
Q 959 1441 959 1056 
Q 959 750 1161 570 
Q 1363 391 1709 391 
Q 2188 391 2477 730 
Q 2766 1069 2766 1631 
L 2766 1759 
L 2194 1759 
z
M 3341 1997 
L 3341 0 
L 2766 0 
L 2766 531 
Q 2569 213 2275 61 
Q 1981 -91 1556 -91 
Q 1019 -91 701 211 
Q 384 513 384 1019 
Q 384 1609 779 1909 
Q 1175 2209 1959 2209 
L 2766 2209 
L 2766 2266 
Q 2766 2663 2505 2880 
Q 2244 3097 1772 3097 
Q 1472 3097 1187 3025 
Q 903 2953 641 2809 
L 641 3341 
Q 956 3463 1253 3523 
Q 1550 3584 1831 3584 
Q 2591 3584 2966 3190 
Q 3341 2797 3341 1997 
z
" transform="scale(0.015625)"/>
       <path id="DejaVuSans-74" d="M 1172 4494 
L 1172 3500 
L 2356 3500 
L 2356 3053 
L 1172 3053 
L 1172 1153 
Q 1172 725 1289 603 
Q 1406 481 1766 481 
L 2356 481 
L 2356 0 
L 1766 0 
Q 1100 0 847 248 
Q 594 497 594 1153 
L 594 3053 
L 172 3053 
L 172 3500 
L 594 3500 
L 594 4494 
L 1172 4494 
z
" transform="scale(0.015625)"/>
       <path id="DejaVuSans-69" d="M 603 3500 
L 1178 3500 
L 1178 0 
L 603 0 
L 603 3500 
z
M 603 4863 
L 1178 4863 
L 1178 4134 
L 603 4134 
L 603 4863 
z
" transform="scale(0.015625)"/>
       <path id="DejaVuSans-76" d="M 191 3500 
L 800 3500 
L 1894 563 
L 2988 3500 
L 3597 3500 
L 2284 0 
L 1503 0 
L 191 3500 
z
" transform="scale(0.015625)"/>
       <path id="DejaVuSans-65" d="M 3597 1894 
L 3597 1613 
L 953 1613 
Q 991 1019 1311 708 
Q 1631 397 2203 397 
Q 2534 397 2845 478 
Q 3156 559 3463 722 
L 3463 178 
Q 3153 47 2828 -22 
Q 2503 -91 2169 -91 
Q 1331 -91 842 396 
Q 353 884 353 1716 
Q 353 2575 817 3079 
Q 1281 3584 2069 3584 
Q 2775 3584 3186 3129 
Q 3597 2675 3597 1894 
z
M 3022 2063 
Q 3016 2534 2758 2815 
Q 2500 3097 2075 3097 
Q 1594 3097 1305 2825 
Q 1016 2553 972 2059 
L 3022 2063 
z
" transform="scale(0.015625)"/>
       <path id="DejaVuSans-20" transform="scale(0.015625)"/>
       <path id="DejaVuSans-50" d="M 1259 4147 
L 1259 2394 
L 2053 2394 
Q 2494 2394 2734 2622 
Q 2975 2850 2975 3272 
Q 2975 3691 2734 3919 
Q 2494 4147 2053 4147 
L 1259 4147 
z
M 628 4666 
L 2053 4666 
Q 2838 4666 3239 4311 
Q 3641 3956 3641 3272 
Q 3641 2581 3239 2228 
Q 2838 1875 2053 1875 
L 1259 1875 
L 1259 0 
L 628 0 
L 628 4666 
z
" transform="scale(0.015625)"/>
       <path id="DejaVuSans-56" d="M 1831 0 
L 50 4666 
L 709 4666 
L 2188 738 
L 3669 4666 
L 4325 4666 
L 2547 0 
L 1831 0 
z
" transform="scale(0.015625)"/>
       <path id="DejaVuSans-5b" d="M 550 4863 
L 1875 4863 
L 1875 4416 
L 1125 4416 
L 1125 -397 
L 1875 -397 
L 1875 -844 
L 550 -844 
L 550 4863 
z
" transform="scale(0.015625)"/>
       <path id="DejaVuSans-47" d="M 3809 666 
L 3809 1919 
L 2778 1919 
L 2778 2438 
L 4434 2438 
L 4434 434 
Q 4069 175 3628 42 
Q 3188 -91 2688 -91 
Q 1594 -91 976 548 
Q 359 1188 359 2328 
Q 359 3472 976 4111 
Q 1594 4750 2688 4750 
Q 3144 4750 3555 4637 
Q 3966 4525 4313 4306 
L 4313 3634 
Q 3963 3931 3569 4081 
Q 3175 4231 2741 4231 
Q 1884 4231 1454 3753 
Q 1025 3275 1025 2328 
Q 1025 1384 1454 906 
Q 1884 428 2741 428 
Q 3075 428 3337 486 
Q 3600 544 3809 666 
z
" transform="scale(0.015625)"/>
       <path id="DejaVuSans-57" d="M 213 4666 
L 850 4666 
L 1831 722 
L 2809 4666 
L 3519 4666 
L 4500 722 
L 5478 4666 
L 6119 4666 
L 4947 0 
L 4153 0 
L 3169 4050 
L 2175 0 
L 1381 0 
L 213 4666 
z
" transform="scale(0.015625)"/>
       <path id="DejaVuSans-5d" d="M 1947 4863 
L 1947 -844 
L 622 -844 
L 622 -397 
L 1369 -397 
L 1369 4416 
L 622 4416 
L 622 4863 
L 1947 4863 
z
" transform="scale(0.015625)"/>
      </defs>
      <use xlink:href="#DejaVuSans-43"/>
      <use xlink:href="#DejaVuSans-75" transform="translate(69.824219 0)"/>
      <use xlink:href="#DejaVuSans-6d" transform="translate(133.203125 0)"/>
      <use xlink:href="#DejaVuSans-75" transform="translate(230.615234 0)"/>
      <use xlink:href="#DejaVuSans-6c" transform="translate(293.994141 0)"/>
      <use xlink:href="#DejaVuSans-61" transform="translate(321.777344 0)"/>
      <use xlink:href="#DejaVuSans-74" transform="translate(383.056641 0)"/>
      <use xlink:href="#DejaVuSans-69" transform="translate(422.265625 0)"/>
      <use xlink:href="#DejaVuSans-76" transform="translate(450.048828 0)"/>
      <use xlink:href="#DejaVuSans-65" transform="translate(509.228516 0)"/>
      <use xlink:href="#DejaVuSans-20" transform="translate(570.751953 0)"/>
      <use xlink:href="#DejaVuSans-50" transform="translate(602.539062 0)"/>
      <use xlink:href="#DejaVuSans-56" transform="translate(662.841797 0)"/>
      <use xlink:href="#DejaVuSans-20" transform="translate(731.25 0)"/>
      <use xlink:href="#DejaVuSans-5b" transform="translate(763.037109 0)"/>
      <use xlink:href="#DejaVuSans-47" transform="translate(802.050781 0)"/>
      <use xlink:href="#DejaVuSans-57" transform="translate(879.541016 0)"/>
      <use xlink:href="#DejaVuSans-5d" transform="translate(978.417969 0)"/>
     </g>
    </g>
   </g>
   <g id="line2d_29">
    <path d="M -1 212.280693 
L 20.372749 212.024372 
L 29.198333 211.834123 
L 41.623825 211.265515 
L 57.475037 210.353714 
L 64.616791 209.867964 
L 66.358683 209.554251 
L 73.384311 209.307776 
L 85.809803 208.562478 
L 87.551695 208.25544 
L 94.577324 208.04272 
L 99.861061 207.620345 
L 107.002816 206.894235 
L 108.744707 206.329612 
L 114.028444 206.095141 
L 121.112136 205.345555 
L 124.712045 204.863491 
L 128.253891 204.186427 
L 129.995782 203.28589 
L 135.221457 203.100605 
L 138.763302 202.611962 
L 140.563257 202.263836 
L 145.905057 200.713675 
L 147.646949 200.113003 
L 149.446903 199.25028 
L 151.188795 196.443191 
L 154.788703 196.32854 
L 156.414469 195.799859 
L 158.214423 194.989112 
L 159.956315 193.975637 
L 161.756269 189.101399 
L 165.298115 188.788845 
L 167.098069 187.534125 
L 168.839961 187.382211 
L 170.639915 186.951027 
L 172.381807 184.777508 
L 175.981716 184.691766 
L 179.407435 184.251427 
L 181.149327 183.673189 
L 182.949281 182.501304 
L 186.491127 180.637575 
L 190.032973 179.237544 
L 191.832927 178.036854 
L 193.574819 172.479941 
L 197.174728 172.340303 
L 198.858556 169.790745 
L 202.400402 169.410933 
L 204.200357 165.95004 
L 205.942248 165.735 
L 207.742202 165.333732 
L 209.542157 163.616393 
L 211.284048 162.876512 
L 213.084003 162.294117 
L 220.051568 160.784264 
L 223.593414 159.691052 
L 228.935215 158.306267 
L 232.47706 157.577738 
L 237.818861 156.802563 
L 241.244581 156.415982 
L 246.586381 155.593766 
L 248.328272 155.019482 
L 253.670073 154.59253 
L 267.779393 153.507115 
L 269.521284 153.222313 
L 271.321239 152.735844 
L 276.663039 152.425358 
L 278.404931 152.197174 
L 287.230514 151.633577 
L 297.914114 150.618678 
L 299.656006 149.8865 
L 301.45596 149.815636 
L 308.423526 148.896651 
L 311.965372 148.359553 
L 322.648973 146.906325 
L 327.874647 146.006544 
L 329.616538 145.622103 
L 334.958339 144.097864 
L 340.300139 143.193181 
L 342.04203 142.678918 
L 343.841985 141.391703 
L 349.067659 139.963512 
L 357.951305 137.762329 
L 359.693197 137.166777 
L 363.235042 136.464018 
L 365.034997 135.664376 
L 366.834951 135.200856 
L 370.318734 134.051053 
L 373.86058 132.609044 
L 377.402426 131.340624 
L 380.944272 130.10038 
L 384.486118 128.501945 
L 388.086027 127.289117 
L 389.711792 126.236455 
L 391.511746 125.30181 
L 395.053592 123.984939 
L 396.795484 123.176456 
L 400.395393 121.81863 
L 403.937238 120.601356 
L 405.67913 119.674489 
L 407.479084 118.888406 
L 409.279039 117.807167 
L 410.904804 116.499511 
L 412.704759 115.745665 
L 414.44665 114.733219 
L 417.988496 113.087559 
L 419.78845 112.011558 
L 421.588405 110.701282 
L 425.130251 108.715802 
L 426.872142 107.990443 
L 430.472051 104.996678 
L 432.097816 103.036451 
L 433.897771 101.208203 
L 437.439617 96.996361 
L 439.181508 94.665542 
L 440.981463 92.526287 
L 442.781417 90.646668 
L 444.523308 88.313041 
L 446.323263 86.10602 
L 448.065154 84.308665 
L 449.865109 81.829259 
L 451.665063 79.919823 
L 453.348892 77.76122 
L 458.690692 71.650463 
L 460.432583 69.127161 
L 462.232538 67.539743 
L 464.032492 65.629879 
L 465.774384 63.072835 
L 467.574338 61.37673 
L 469.316229 58.575063 
L 471.116184 57.114071 
L 472.916138 54.569359 
L 476.341858 51.579329 
L 478.08375 49.636855 
L 479.883704 47.949903 
L 481.625595 45.551786 
L 483.42555 42.434018 
L 485.225504 40.899987 
L 486.967396 38.921265 
L 488.76735 36.034195 
L 490.509242 34.106683 
L 492.309196 33.223418 
L 497.53487 31.468809 
L 499.276762 31.381761 
L 499.276762 31.381761 
" clip-path="url(#p5a3c67d773)" style="fill: none; stroke: #b45309; stroke-width: 2; stroke-linecap: square"/>
   </g>
   <g id="patch_3">
    <path d="M 46.965625 221.718125 
L 46.965625 22.318125 
" style="fill: none; stroke: #000000; stroke-width: 0.8; stroke-linejoin: miter; stroke-linecap: square"/>
   </g>
   <g id="patch_4">
    <path d="M 633.231115 221.718125 
L 633.231115 22.318125 
" style="fill: none; stroke: #000000; stroke-width: 0.8; stroke-linejoin: miter; stroke-linecap: square"/>
   </g>
   <g id="patch_5">
    <path d="M 46.965625 221.718125 
L 633.231115 221.718125 
" style="fill: none; stroke: #000000; stroke-width: 0.8; stroke-linejoin: miter; stroke-linecap: square"/>
   </g>
   <g id="patch_6">
    <path d="M 46.965625 22.318125 
L 633.231115 22.318125 
" style="fill: none; stroke: #000000; stroke-width: 0.8; stroke-linejoin: miter; stroke-linecap: square"/>
   </g>
   <g id="text_16">
    <!-- Cumulative PV capacity over time -->
    <g transform="translate(238.236182 16.318125) scale(0.12 -0.12)">
     <defs>
      <path id="DejaVuSans-63" d="M 3122 3366 
L 3122 2828 
Q 2878 2963 2633 3030 
Q 2388 3097 2138 3097 
Q 1578 3097 1268 2742 
Q 959 2388 959 1747 
Q 959 1106 1268 751 
Q 1578 397 2138 397 
Q 2388 397 2633 464 
Q 2878 531 3122 666 
L 3122 134 
Q 2881 22 2623 -34 
Q 2366 -91 2075 -91 
Q 1284 -91 818 406 
Q 353 903 353 1747 
Q 353 2603 823 3093 
Q 1294 3584 2113 3584 
Q 2378 3584 2631 3529 
Q 2884 3475 3122 3366 
z
" transform="scale(0.015625)"/>
      <path id="DejaVuSans-70" d="M 1159 525 
L 1159 -1331 
L 581 -1331 
L 581 3500 
L 1159 3500 
L 1159 2969 
Q 1341 3281 1617 3432 
Q 1894 3584 2278 3584 
Q 2916 3584 3314 3078 
Q 3713 2572 3713 1747 
Q 3713 922 3314 415 
Q 2916 -91 2278 -91 
Q 1894 -91 1617 61 
Q 1341 213 1159 525 
z
M 3116 1747 
Q 3116 2381 2855 2742 
Q 2594 3103 2138 3103 
Q 1681 3103 1420 2742 
Q 1159 2381 1159 1747 
Q 1159 1113 1420 752 
Q 1681 391 2138 391 
Q 2594 391 2855 752 
Q 3116 1113 3116 1747 
z
" transform="scale(0.015625)"/>
      <path id="DejaVuSans-79" d="M 2059 -325 
Q 1816 -950 1584 -1140 
Q 1353 -1331 966 -1331 
L 506 -1331 
L 506 -850 
L 844 -850 
Q 1081 -850 1212 -737 
Q 1344 -625 1503 -206 
L 1606 56 
L 191 3500 
L 800 3500 
L 1894 763 
L 2988 3500 
L 3597 3500 
L 2059 -325 
z
" transform="scale(0.015625)"/>
      <path id="DejaVuSans-6f" d="M 1959 3097 
Q 1497 3097 1228 2736 
Q 959 2375 959 1747 
Q 959 1119 1226 758 
Q 1494 397 1959 397 
Q 2419 397 2687 759 
Q 2956 1122 2956 1747 
Q 2956 2369 2687 2733 
Q 2419 3097 1959 3097 
z
M 1959 3584 
Q 2709 3584 3137 3096 
Q 3566 2609 3566 1747 
Q 3566 888 3137 398 
Q 2709 -91 1959 -91 
Q 1206 -91 779 398 
Q 353 888 353 1747 
Q 353 2609 779 3096 
Q 1206 3584 1959 3584 
z
" transform="scale(0.015625)"/>
      <path id="DejaVuSans-72" d="M 2631 2963 
Q 2534 3019 2420 3045 
Q 2306 3072 2169 3072 
Q 1681 3072 1420 2755 
Q 1159 2438 1159 1844 
L 1159 0 
L 581 0 
L 581 3500 
L 1159 3500 
L 1159 2956 
Q 1341 3275 1631 3429 
Q 1922 3584 2338 3584 
Q 2397 3584 2469 3576 
Q 2541 3569 2628 3553 
L 2631 2963 
z
" transform="scale(0.015625)"/>
     </defs>
     <use xlink:href="#DejaVuSans-43"/>
     <use xlink:href="#DejaVuSans-75" transform="translate(69.824219 0)"/>
     <use xlink:href="#DejaVuSans-6d" transform="translate(133.203125 0)"/>
     <use xlink:href="#DejaVuSans-75" transform="translate(230.615234 0)"/>
     <use xlink:href="#DejaVuSans-6c" transform="translate(293.994141 0)"/>
     <use xlink:href="#DejaVuSans-61" transform="translate(321.777344 0)"/>
     <use xlink:href="#DejaVuSans-74" transform="translate(383.056641 0)"/>
     <use xlink:href="#DejaVuSans-69" transform="translate(422.265625 0)"/>
     <use xlink:href="#DejaVuSans-76" transform="translate(450.048828 0)"/>
     <use xlink:href="#DejaVuSans-65" transform="translate(509.228516 0)"/>
     <use xlink:href="#DejaVuSans-20" transform="translate(570.751953 0)"/>
     <use xlink:href="#DejaVuSans-50" transform="translate(602.539062 0)"/>
     <use xlink:href="#DejaVuSans-56" transform="translate(662.841797 0)"/>
     <use xlink:href="#DejaVuSans-20" transform="translate(731.25 0)"/>
     <use xlink:href="#DejaVuSans-63" transform="translate(763.037109 0)"/>
     <use xlink:href="#DejaVuSans-61" transform="translate(818.017578 0)"/>
     <use xlink:href="#DejaVuSans-70" transform="translate(879.296875 0)"/>
     <use xlink:href="#DejaVuSans-61" transform="translate(942.773438 0)"/>
     <use xlink:href="#DejaVuSans-63" transform="translate(1004.052734 0)"/>
     <use xlink:href="#DejaVuSans-69" transform="translate(1059.033203 0)"/>
     <use xlink:href="#DejaVuSans-74" transform="translate(1086.816406 0)"/>
     <use xlink:href="#DejaVuSans-79" transform="translate(1126.025391 0)"/>
     <use xlink:href="#DejaVuSans-20" transform="translate(1185.205078 0)"/>
     <use xlink:href="#DejaVuSans-6f" transform="translate(1216.992188 0)"/>
     <use xlink:href="#DejaVuSans-76" transform="translate(1278.173828 0)"/>
     <use xlink:href="#DejaVuSans-65" transform="translate(1337.353516 0)"/>
     <use xlink:href="#DejaVuSans-72" transform="translate(1398.876953 0)"/>
     <use xlink:href="#DejaVuSans-20" transform="translate(1439.990234 0)"/>
     <use xlink:href="#DejaVuSans-74" transform="translate(1471.777344 0)"/>
     <use xlink:href="#DejaVuSans-69" transform="translate(1510.986328 0)"/>
     <use xlink:href="#DejaVuSans-6d" transform="translate(1538.769531 0)"/>
     <use xlink:href="#DejaVuSans-65" transform="translate(1636.181641 0)"/>
    </g>
   </g>
  </g>
 </g>
 <defs>
  <clipPath id="p5a3c67d773">
   <rect x="46.965625" y="22.318125" width="586.26549" height="199.4"/>
  </clipPath>
 </defs>
</svg>
